<svg width="26" height="26" viewBox="0 0 26 26" fill="none" xmlns="http://www.w3.org/2000/svg">
<path d="M9.20768 15.1663C9.56683 15.1663 9.91127 15.0237 10.1652 14.7697C10.4192 14.5158 10.5618 14.1713 10.5618 13.8122C10.5618 13.453 10.4192 13.1086 10.1652 12.8546C9.91127 12.6007 9.56683 12.458 9.20768 12.458C8.84853 12.458 8.5041 12.6007 8.25014 12.8546C7.99619 13.1086 7.85352 13.453 7.85352 13.8122C7.85352 14.1713 7.99619 14.5158 8.25014 14.7697C8.5041 15.0237 8.84853 15.1663 9.20768 15.1663ZM9.20768 18.958C9.56683 18.958 9.91127 18.8153 10.1652 18.5614C10.4192 18.3074 10.5618 17.963 10.5618 17.6038C10.5618 17.2447 10.4192 16.9003 10.1652 16.6463C9.91127 16.3923 9.56683 16.2497 9.20768 16.2497C8.84853 16.2497 8.5041 16.3923 8.25014 16.6463C7.99619 16.9003 7.85352 17.2447 7.85352 17.6038C7.85352 17.963 7.99619 18.3074 8.25014 18.5614C8.5041 18.8153 8.84853 18.958 9.20768 18.958ZM14.3535 13.8122C14.3535 14.1713 14.2108 14.5158 13.9569 14.7697C13.7029 15.0237 13.3585 15.1663 12.9993 15.1663C12.6402 15.1663 12.2958 15.0237 12.0418 14.7697C11.7879 14.5158 11.6452 14.1713 11.6452 13.8122C11.6452 13.453 11.7879 13.1086 12.0418 12.8546C12.2958 12.6007 12.6402 12.458 12.9993 12.458C13.3585 12.458 13.7029 12.6007 13.9569 12.8546C14.2108 13.1086 14.3535 13.453 14.3535 13.8122ZM12.9993 18.958C13.3585 18.958 13.7029 18.8153 13.9569 18.5614C14.2108 18.3074 14.3535 17.963 14.3535 17.6038C14.3535 17.2447 14.2108 16.9003 13.9569 16.6463C13.7029 16.3923 13.3585 16.2497 12.9993 16.2497C12.6402 16.2497 12.2958 16.3923 12.0418 16.6463C11.7879 16.9003 11.6452 17.2447 11.6452 17.6038C11.6452 17.963 11.7879 18.3074 12.0418 18.5614C12.2958 18.8153 12.6402 18.958 12.9993 18.958ZM18.1452 13.8122C18.1452 14.1713 18.0025 14.5158 17.7486 14.7697C17.4946 15.0237 17.1502 15.1663 16.791 15.1663C16.4319 15.1663 16.0874 15.0237 15.8335 14.7697C15.5795 14.5158 15.4368 14.1713 15.4368 13.8122C15.4368 13.453 15.5795 13.1086 15.8335 12.8546C16.0874 12.6007 16.4319 12.458 16.791 12.458C17.1502 12.458 17.4946 12.6007 17.7486 12.8546C18.0025 13.1086 18.1452 13.453 18.1452 13.8122Z" fill="#FBFBFB"/>
<path fill-rule="evenodd" clip-rule="evenodd" d="M8.66602 3.52051C8.8815 3.52051 9.08817 3.60611 9.24054 3.75848C9.39291 3.91086 9.47852 4.11752 9.47852 4.33301V5.14551H16.5202V4.33301C16.5202 4.11752 16.6058 3.91086 16.7582 3.75848C16.9105 3.60611 17.1172 3.52051 17.3327 3.52051C17.5482 3.52051 17.7548 3.60611 17.9072 3.75848C18.0596 3.91086 18.1452 4.11752 18.1452 4.33301V5.15417C18.3098 5.15851 18.4633 5.16645 18.6056 5.17801C19.0173 5.21051 19.4029 5.28417 19.768 5.47051C20.3287 5.75615 20.7845 6.21199 21.0702 6.77267C21.2565 7.13776 21.3302 7.52342 21.3627 7.93509C21.3952 8.33051 21.3952 8.81259 21.3952 9.39217V17.6905C21.3952 18.2701 21.3952 18.7522 21.3627 19.1476C21.3302 19.5593 21.2565 19.9449 21.0702 20.31C20.7848 20.8705 20.3294 21.3263 19.7691 21.6122C19.4029 21.7985 19.0173 21.8722 18.6056 21.9047C18.2102 21.9372 17.7281 21.9372 17.1496 21.9372H8.85018C8.2706 21.9372 7.78852 21.9372 7.3931 21.9047C6.98143 21.8722 6.59577 21.7985 6.23068 21.6122C5.67033 21.3271 5.21453 20.8721 4.92852 20.3122C4.74218 19.946 4.66852 19.5603 4.63602 19.1487C4.60352 18.7533 4.60352 18.2712 4.60352 17.6927V9.39217C4.60352 8.81259 4.60352 8.33051 4.63602 7.93509C4.66852 7.52342 4.74218 7.13776 4.92852 6.77267C5.21416 6.21199 5.67 5.75615 6.23068 5.47051C6.59577 5.28417 6.98143 5.21051 7.3931 5.17801C7.53538 5.16645 7.68885 5.15851 7.85352 5.15417V4.33301C7.85352 4.22631 7.87453 4.12065 7.91536 4.02208C7.9562 3.9235 8.01604 3.83393 8.09149 3.75848C8.16694 3.68304 8.25651 3.62319 8.35509 3.58236C8.45366 3.54152 8.55932 3.52051 8.66602 3.52051ZM19.7702 11.1038H6.22852V17.658C6.22852 18.2777 6.22852 18.6948 6.2556 19.0143C6.28052 19.3263 6.32602 19.4748 6.37585 19.5723C6.50585 19.8279 6.71277 20.0348 6.96843 20.1648C7.06593 20.2147 7.21435 20.2602 7.52527 20.2851C7.84593 20.3111 8.26193 20.3122 8.88268 20.3122H17.116C17.7357 20.3122 18.1528 20.3122 18.4723 20.2851C18.7843 20.2602 18.9328 20.2147 19.0303 20.1648C19.2855 20.0349 19.4929 19.8275 19.6228 19.5723C19.6727 19.4748 19.7182 19.3263 19.7431 19.0143C19.7691 18.6948 19.7702 18.2777 19.7702 17.658V11.1038ZM11.3743 7.58301C11.1589 7.58301 10.9522 7.66861 10.7998 7.82098C10.6475 7.97336 10.5618 8.18002 10.5618 8.39551C10.5618 8.611 10.6475 8.81766 10.7998 8.97003C10.9522 9.12241 11.1589 9.20801 11.3743 9.20801H14.6243C14.8398 9.20801 15.0465 9.12241 15.1989 8.97003C15.3512 8.81766 15.4368 8.611 15.4368 8.39551C15.4368 8.18002 15.3512 7.97336 15.1989 7.82098C15.0465 7.66861 14.8398 7.58301 14.6243 7.58301H11.3743Z" fill="#FBFBFB"/>
</svg>
