<svg width="34" height="34" viewBox="0 0 34 34" fill="none" xmlns="http://www.w3.org/2000/svg">
<path d="M5.66672 15.583C6.0278 15.5834 6.3751 15.7217 6.63766 15.9695C6.90022 16.2174 7.05822 16.5562 7.07939 16.9167C7.10055 17.2771 6.98327 17.632 6.75152 17.9089C6.51976 18.1858 6.19103 18.3638 5.83247 18.4064L5.66672 18.4163H4.25006C3.88898 18.4159 3.54168 18.2777 3.27912 18.0298C3.01656 17.7819 2.85856 17.4432 2.8374 17.0827C2.81624 16.7222 2.93351 16.3673 3.16527 16.0904C3.39702 15.8135 3.72576 15.6356 4.08431 15.5929L4.25006 15.583H5.66672ZM17.0001 2.83301C17.347 2.83305 17.682 2.96045 17.9413 3.19102C18.2006 3.4216 18.3662 3.73932 18.4068 4.08392L18.4167 4.24967V5.66634C18.4163 6.02742 18.2781 6.37472 18.0302 6.63728C17.7823 6.89984 17.4435 7.05784 17.0831 7.079C16.7226 7.10016 16.3677 6.98289 16.0908 6.75113C15.8139 6.51938 15.636 6.19064 15.5933 5.83209L15.5834 5.66634V4.24967C15.5834 3.87395 15.7326 3.51362 15.9983 3.24794C16.264 2.98226 16.6243 2.83301 17.0001 2.83301ZM29.7501 15.583C30.1111 15.5834 30.4584 15.7217 30.721 15.9695C30.9836 16.2174 31.1416 16.5562 31.1627 16.9167C31.1839 17.2771 31.0666 17.632 30.8349 17.9089C30.6031 18.1858 30.2744 18.3638 29.9158 18.4064L29.7501 18.4163H28.3334C27.9723 18.4159 27.625 18.2777 27.3625 18.0298C27.0999 17.7819 26.9419 17.4432 26.9207 17.0827C26.8996 16.7222 27.0168 16.3673 27.2486 16.0904C27.4804 15.8135 27.8091 15.6356 28.1676 15.5929L28.3334 15.583H29.7501ZM6.93181 6.93143C7.17575 6.68751 7.50031 6.54098 7.84459 6.51933C8.18888 6.49768 8.52924 6.6024 8.80181 6.81384L8.93498 6.93143L9.92664 7.92309C10.1807 8.17803 10.3282 8.52012 10.3392 8.87989C10.3502 9.23965 10.2238 9.5901 9.98579 9.86007C9.74774 10.13 9.41586 10.2993 9.05755 10.3334C8.69925 10.3675 8.34138 10.264 8.05664 10.0438L7.92347 9.92626L6.93181 8.93459C6.66622 8.66893 6.51703 8.30866 6.51703 7.93301C6.51703 7.55736 6.66622 7.19709 6.93181 6.93143ZM25.0651 6.93143C25.3201 6.67735 25.6622 6.52984 26.0219 6.51885C26.3817 6.50787 26.7322 6.63423 27.0021 6.87228C27.2721 7.11032 27.4413 7.44221 27.4755 7.80051C27.5096 8.15882 27.4061 8.51669 27.1859 8.80142L27.0683 8.93459L26.0766 9.92626C25.8217 10.1803 25.4796 10.3278 25.1199 10.3388C24.7601 10.3498 24.4096 10.2235 24.1397 9.98541C23.8697 9.74736 23.7005 9.41548 23.6663 9.05717C23.6322 8.69886 23.7357 8.341 23.9559 8.05626L24.0735 7.92309L25.0651 6.93143ZM19.8334 25.4997C20.2091 25.4997 20.5695 25.6489 20.8351 25.9146C21.1008 26.1803 21.2501 26.5406 21.2501 26.9163C21.2501 28.0435 20.8023 29.1245 20.0053 29.9215C19.2082 30.7186 18.1272 31.1663 17.0001 31.1663C15.8729 31.1663 14.7919 30.7186 13.9949 29.9215C13.1978 29.1245 12.7501 28.0435 12.7501 26.9163C12.7501 26.5694 12.8775 26.2344 13.1081 25.9751C13.3386 25.7159 13.6564 25.5502 14.001 25.5096L14.1667 25.4997H19.8334ZM17.0001 8.49967C18.7841 8.49967 20.5228 9.06099 21.9701 10.1041C23.4174 11.1472 24.4997 12.6193 25.0639 14.3117C25.628 16.0042 25.6454 17.8312 25.1134 19.5341C24.5815 21.237 23.5273 22.7293 22.1001 23.7997C21.9048 23.9463 21.675 24.04 21.4328 24.0717L21.2501 24.083H12.7501C12.4435 24.083 12.1453 23.9836 11.9001 23.7997C10.4729 22.7293 9.41862 21.237 8.88669 19.5341C8.35476 17.8312 8.3721 16.0042 8.93625 14.3117C9.5004 12.6193 10.5828 11.1472 12.03 10.1041C13.4773 9.06099 15.2161 8.49967 17.0001 8.49967Z" fill="#3B5FDF"/>
</svg>
