<svg width="30" height="30" viewBox="0 0 30 30" fill="none" xmlns="http://www.w3.org/2000/svg">
<g clip-path="url(#clip0_420_448)">
<path d="M25.9992 26H6.57422C6.17639 26 5.79486 26.158 5.51356 26.4393C5.23225 26.7206 5.07422 27.1022 5.07422 27.5C5.07422 27.8978 5.23225 28.2794 5.51356 28.5607C5.79486 28.842 6.17639 29 6.57422 29H27.4992C27.897 29 28.2786 28.842 28.5599 28.5607C28.8412 28.2794 28.9992 27.8978 28.9992 27.5V6.5C28.9992 6.10217 28.8412 5.72064 28.5599 5.43934C28.2786 5.15803 27.897 5 27.4992 5C27.1014 5 26.7199 5.15803 26.4386 5.43934C26.1573 5.72064 25.9992 6.10217 25.9992 6.5V26Z" fill="#3B5FDF"/>
<path d="M26.4399 28.5621C26.7216 28.8437 27.1036 29.002 27.5019 29.002C27.9002 29.002 28.2822 28.8437 28.5639 28.5621C28.8456 28.2804 29.0038 27.8984 29.0038 27.5001C29.0038 27.1017 28.8456 26.7197 28.5639 26.4381L3.06389 0.938059C2.92443 0.798595 2.75886 0.687965 2.57665 0.612488C2.39443 0.537012 2.19913 0.498165 2.00189 0.498165C1.80466 0.498165 1.60936 0.537012 1.42714 0.612488C1.24493 0.687965 1.07936 0.798595 0.939894 0.938059C0.800431 1.07752 0.689802 1.24309 0.614325 1.42531C0.538848 1.60753 0.5 1.80283 0.5 2.00006C0.5 2.19729 0.538848 2.39259 0.614325 2.57481C0.689802 2.75703 0.800431 2.9226 0.939894 3.06206L26.4399 28.5621Z" fill="#3B5FDF"/>
</g>
<defs>
<clipPath id="clip0_420_448">
<rect width="30" height="30" fill="white" transform="matrix(1 0 0 -1 0 30)"/>
</clipPath>
</defs>
</svg>
