<svg width="195" height="222" viewBox="0 0 195 222" fill="none" xmlns="http://www.w3.org/2000/svg">
<g clip-path="url(#clip0_212_304)">
<path d="M125.866 222C123.46 222 120.745 221.075 117.722 219.224C114.76 217.311 113.156 215.892 112.909 214.967C112.909 214.597 112.632 214.288 112.076 214.042C111.398 213.795 110.318 211.913 108.837 208.397C107.356 204.819 106.616 202.382 106.616 201.086C106.616 200.901 106.678 200.685 106.801 200.439C106.801 200.377 106.801 200.346 106.801 200.346C106.801 200.161 106.709 200.068 106.523 200.068C105.907 200.068 104.981 195.349 103.747 185.91C103.562 184.614 103.469 181.561 103.469 176.749C103.469 168.05 103.963 160.894 104.95 155.28C105.012 154.971 105.043 154.755 105.043 154.632C105.29 152.843 105.598 150.869 105.968 148.709C106.4 146.365 106.647 144.514 106.709 143.157C96.775 143.281 90.0807 143.404 86.6255 143.527C83.1704 143.651 79.962 143.867 77.0005 144.175C73.9155 144.422 70.8923 144.638 67.9307 144.823C66.6967 144.823 65.7404 144.946 65.0617 145.193C64.383 145.44 63.365 145.563 62.0076 145.563C60.6502 145.563 59.6322 145.687 58.9535 145.933C58.3365 146.18 57.7504 146.704 57.1951 147.506C56.7015 148.247 56.0536 149.573 55.2515 151.486C54.141 153.953 53.2772 155.557 52.6602 156.298C52.5368 156.421 52.4751 156.575 52.4751 156.76C52.4751 157.192 51.6421 159.382 49.9763 163.331C48.3104 167.279 47.3541 169.376 47.1073 169.623C47.1073 169.623 45.9041 173.51 43.4979 181.283C43.4362 182.085 43.1277 184.244 42.5724 187.761C42.0171 191.215 41.6469 193.097 41.4618 193.406C41.3384 193.406 41.2767 193.066 41.2767 192.388C41.2767 190.537 41.4926 187.514 41.9245 183.319C41.9245 182.517 42.1096 181.931 42.4798 181.561C42.6032 181.437 42.6649 181.314 42.6649 181.19L42.5724 180.728C42.5107 180.604 42.4798 180.45 42.4798 180.265C42.4798 180.018 42.5724 179.802 42.7575 179.617C42.9426 179.371 43.0351 179.093 43.0351 178.784C43.0351 178.599 43.0043 178.353 42.9426 178.044C42.8809 177.797 42.85 177.643 42.85 177.581C42.85 177.396 42.8809 177.304 42.9426 177.304C42.9426 177.304 43.0043 177.335 43.1277 177.396C43.1277 177.396 43.1585 177.396 43.2202 177.396C43.5287 177.396 43.8372 176.872 44.1457 175.823C44.4542 174.713 44.6084 173.695 44.6084 172.769C44.6084 172.461 44.5467 172.122 44.4234 171.752C44.3617 171.628 44.3308 171.536 44.3308 171.474C44.3308 171.351 44.3925 171.289 44.5159 171.289C44.5776 171.289 44.6701 171.351 44.7935 171.474C45.0403 171.536 45.1637 171.566 45.1637 171.566C45.2871 171.566 45.3488 171.505 45.3488 171.381C45.3488 171.32 45.2871 171.104 45.1637 170.734C45.0403 170.302 44.9786 170.024 44.9786 169.901C44.9786 169.777 45.0403 169.716 45.1637 169.716C45.2254 169.716 45.318 169.747 45.4414 169.808C45.5648 169.87 45.6573 169.901 45.719 169.901C45.8424 169.901 45.9041 169.777 45.9041 169.531C45.9041 168.358 46.1201 167.495 46.552 166.94C46.7371 166.693 46.8296 166.508 46.8296 166.384C46.8296 166.323 46.7988 166.292 46.7371 166.292C46.6754 166.23 46.6445 166.199 46.6445 166.199C46.6445 166.199 46.7371 166.107 46.9222 165.922C47.2924 165.613 47.4775 165.397 47.4775 165.274C47.4775 165.212 47.4158 165.181 47.2924 165.181C46.9839 165.181 46.8296 165.027 46.8296 164.719C46.8296 164.225 47.0764 163.855 47.57 163.608C48.0636 163.423 48.4338 163.115 48.6806 162.683C48.9891 162.251 49.1433 161.418 49.1433 160.184C49.1433 159.444 49.3901 158.734 49.8837 158.056C50.2539 157.562 50.5007 157.13 50.6241 156.76C50.9326 154.786 51.4879 153.491 52.29 152.874C52.3517 152.812 52.3825 152.781 52.3825 152.781C52.3825 152.781 52.29 152.812 52.1049 152.874C51.7964 153.059 51.6113 153.151 51.5496 153.151C51.4262 153.151 51.3645 153.12 51.3645 153.059C51.3645 152.75 51.9815 151.856 53.2155 150.375C54.2027 149.265 54.6963 148.617 54.6963 148.432C54.6346 148.432 54.5112 148.463 54.3261 148.524C54.0793 148.648 53.8942 148.709 53.7708 148.709C53.7708 148.648 53.8633 148.401 54.0484 147.969C54.2952 147.476 54.4186 147.167 54.4186 147.044C54.4186 146.797 54.2335 146.674 53.8633 146.674C53.308 146.674 53.0304 146.951 53.0304 147.506L53.1229 148.154C53.1229 148.216 52.9378 148.524 52.5676 149.08C50.8401 151.732 49.9763 153.953 49.9763 155.742C49.9763 155.927 50.0071 156.113 50.0688 156.298C50.0688 156.359 50.0688 156.39 50.0688 156.39C50.0688 156.637 49.9763 156.76 49.7912 156.76C49.7912 156.76 49.7295 156.76 49.6061 156.76C49.4827 156.699 49.3901 156.668 49.3284 156.668C49.205 156.668 48.7423 157.593 47.9402 159.444C47.1998 161.295 46.8296 162.313 46.8296 162.498C46.7062 163.053 46.0275 165.15 44.7935 168.79C44.3617 170.024 44.1457 170.641 44.1457 170.641C44.1457 170.703 44.1149 170.764 44.0532 170.826C43.9298 171.135 43.8064 171.351 43.683 171.474C42.9426 172.646 42.2022 175.638 41.4618 180.45C40.7831 185.201 40.4438 189.118 40.4438 192.203C40.4438 195.781 40.7214 198.372 41.2767 199.976C41.832 201.58 42.9734 203.647 44.701 206.176C44.8861 206.423 45.0403 206.639 45.1637 206.824C47.1381 206.824 48.7114 207.04 49.8837 207.471C51.1177 207.842 51.7347 208.428 51.7347 209.23C51.7347 209.662 51.3337 210.001 50.5316 210.248C49.7912 210.433 48.9274 210.525 47.9402 210.525C44.0532 210.525 40.4746 208.613 37.2046 204.788C33.9345 200.901 31.3123 195.75 29.3379 189.334C27.4252 182.856 26.4689 175.977 26.4689 168.698C26.4689 165.305 26.87 160.678 27.672 154.817C27.9188 152.843 28.0422 151.671 28.0422 151.301C28.0422 150.869 27.9805 150.653 27.8571 150.653C27.4252 150.653 26.9625 152.133 26.4689 155.095C25.9753 158.056 25.7285 161.757 25.7285 166.199C25.7285 170.641 25.5743 172.862 25.2658 172.862C24.9573 172.862 24.803 170.98 24.803 167.217C24.803 164.194 24.8956 161.757 25.0807 159.907C25.2658 157.994 25.5743 155.866 26.0062 153.521C26.1913 152.164 26.3455 151.115 26.4689 150.375C25.4817 150.499 24.6179 150.622 23.8776 150.745C23.6308 150.807 23.4765 150.838 23.4148 150.838C23.0446 150.838 22.8595 150.745 22.8595 150.56L22.9521 150.19C22.9521 150.067 22.8595 150.005 22.6744 150.005C22.3042 150.005 22.0574 150.221 21.934 150.653C21.7489 151.085 19.3735 151.578 14.8078 152.133C11.9696 152.442 10.4271 152.689 10.1804 152.874C9.93355 153.059 9.62506 153.151 9.25486 153.151C9.13147 153.151 8.97722 153.12 8.79212 153.059C8.60702 152.997 8.48363 152.966 8.42193 152.966C8.11343 152.966 7.83579 153.182 7.58899 153.614C7.52729 153.737 7.49644 153.799 7.49644 153.799C7.43474 153.799 7.40389 153.737 7.40389 153.614C7.28049 152.997 6.94115 152.689 6.38586 152.689C5.95396 152.689 5.73802 152.719 5.73802 152.781C5.73802 152.843 5.92311 152.997 6.29331 153.244C6.47841 153.429 6.57095 153.521 6.57095 153.521C6.57095 153.645 6.13906 153.707 5.27527 153.707C4.16469 153.707 3.6094 153.583 3.6094 153.336C3.6094 153.09 5.64547 152.534 9.71761 151.671C13.8514 150.807 16.5045 150.375 17.6768 150.375C18.2321 150.375 18.6023 150.499 18.7874 150.745C18.8491 150.807 18.9108 150.869 18.9725 150.93C19.0959 150.992 19.1884 151.023 19.2501 151.023C19.2501 151.023 19.2193 150.961 19.1576 150.838C19.0342 150.653 18.9725 150.499 18.9725 150.375C18.9725 150.067 19.4969 149.882 20.5458 149.82C20.9777 149.82 21.2553 149.789 21.3787 149.727C21.934 149.727 22.9829 149.542 24.5254 149.172C26.1296 148.74 26.9317 148.278 26.9317 147.784C26.9317 147.661 26.9008 147.568 26.8391 147.506C26.2221 147.506 22.3351 148.216 15.178 149.635C6.7869 151.239 2.15947 152.041 1.29568 152.041C0.431894 152.041 0 151.825 0 151.393C0 151.27 0.0616991 151.115 0.185097 150.93C0.740389 149.882 1.23398 147.568 1.66588 143.99C2.15947 140.905 2.77646 139.363 3.51685 139.363C3.57855 139.363 3.6711 139.394 3.79449 139.456C3.85619 139.517 3.88704 139.548 3.88704 139.548C3.94874 139.548 3.97959 139.517 3.97959 139.456C3.97959 139.456 3.94874 139.363 3.88704 139.178C3.88704 138.129 5.27527 136.772 8.05173 135.106C10.8282 133.379 12.4941 132.515 13.0494 132.515C13.4196 132.515 13.6664 132.361 13.7897 132.053C13.9131 131.806 14.0982 131.682 14.345 131.682C14.4067 131.744 14.561 131.775 14.8078 131.775C15.0546 131.775 15.6407 131.652 16.5662 131.405C17.4917 131.096 17.9544 130.942 17.9544 130.942C18.0778 130.942 19.065 130.664 20.916 130.109C25.5434 128.629 28.3507 127.888 29.3379 127.888L29.523 127.981C29.9549 127.981 30.6336 127.765 31.5591 127.333C32.4846 126.84 32.9473 126.469 32.9473 126.223C32.9473 126.099 32.6388 126.038 32.0218 126.038C31.5899 126.038 31.0038 126.068 30.2634 126.13C29.8315 126.192 29.5539 126.223 29.4305 126.223C28.9369 126.223 28.6901 126.161 28.6901 126.038C28.6901 125.852 28.9986 125.667 29.6156 125.482C30.2326 125.297 31.3123 125.081 32.8548 124.835C33.7186 122.737 34.7057 120.023 35.8163 116.691C36.5567 114.532 37.0503 113.175 37.2971 112.619C37.5439 112.373 38.13 110.954 39.0555 108.363C39.6108 106.697 39.9502 105.802 40.0736 105.679C40.0736 105.556 40.3204 104.877 40.814 103.643C41.8011 101.052 42.2947 99.479 42.2947 98.9237C42.2947 98.3068 42.0479 97.9983 41.5543 97.9983C41.4309 97.9983 41.3692 98.0909 41.3692 98.2759C41.4309 98.7078 41.5235 99.0163 41.6469 99.2013C41.6469 99.263 41.6469 99.2939 41.6469 99.2939V99.3864C41.5852 99.3864 41.4618 99.3247 41.2767 99.2013C40.8448 98.8312 40.5055 98.6461 40.2587 98.6461C39.7651 98.6461 39.5183 98.8929 39.5183 99.3864C39.5183 99.5098 39.58 99.7257 39.7034 100.034C39.7651 100.158 39.7959 100.219 39.7959 100.219C39.6725 100.219 39.5183 100.065 39.3332 99.7566C38.7779 99.2013 38.13 98.9237 37.3897 98.9237C37.0195 98.9854 36.711 99.0779 36.4642 99.2013C36.2791 99.3247 36.1865 99.4481 36.1865 99.5715C36.1865 99.7566 36.4333 99.88 36.9269 99.9416C37.5439 100.003 37.8524 100.188 37.8524 100.497C37.8524 100.682 37.7598 100.774 37.5748 100.774C36.8961 100.774 36.3099 100.343 35.8163 99.479C35.6312 99.1705 35.5078 99.0163 35.4461 99.0163C35.3227 99.0163 35.1376 99.1396 34.8908 99.3864C34.3972 99.6332 34.0271 99.7566 33.7803 99.7566C33.6569 99.7566 33.5026 99.6949 33.3175 99.5715C33.1941 99.5098 33.1016 99.479 33.0399 99.479C32.9782 99.479 32.9473 99.5406 32.9473 99.664C32.9473 99.8491 33.1941 100.158 33.6877 100.589C33.9962 100.898 34.1505 101.083 34.1505 101.145C34.1505 101.268 33.5952 101.33 32.4846 101.33C32.1761 101.33 32.0218 101.299 32.0218 101.237C32.0218 101.237 32.0527 101.237 32.1144 101.237C32.4846 101.052 32.6697 100.805 32.6697 100.497C32.6697 100.003 32.3303 99.7566 31.6516 99.7566C30.9729 99.7566 30.0475 100.158 28.8752 100.96C28.4433 101.206 28.1965 101.33 28.1348 101.33C28.1348 101.33 28.1656 101.237 28.2273 101.052C28.3507 100.867 28.4124 100.774 28.4124 100.774C28.4124 100.651 28.3199 100.589 28.1348 100.589C27.888 100.589 26.7157 100.744 24.6179 101.052C22.5202 101.299 21.4713 101.515 21.4713 101.7C21.4713 101.885 21.2862 101.977 20.916 101.977C19.7437 101.977 18.9725 102.132 18.6023 102.44C18.4789 102.502 18.3863 102.533 18.3246 102.533C18.3246 102.471 18.3863 102.317 18.5097 102.07C18.6331 101.885 18.6948 101.762 18.6948 101.7C18.5714 101.7 18.4172 101.762 18.2321 101.885C17.7385 102.132 17.1832 102.317 16.5662 102.44C16.3811 102.44 15.9801 102.533 15.3631 102.718C13.8206 103.15 12.309 103.366 10.8282 103.366C9.77931 103.366 9.19317 103.273 9.06977 103.088C8.82297 102.594 8.57617 101.391 8.32938 99.479C8.08258 97.5048 7.95918 95.6849 7.95918 94.0192C7.95918 92.6003 8.05173 91.7057 8.23683 91.3356C8.66872 90.2251 10.2729 89.0221 13.0494 87.7266C15.8258 86.431 18.2938 85.7215 20.4533 85.5982C21.6872 85.5982 22.3042 85.4131 22.3042 85.0429C22.3042 84.8579 23.3223 84.5802 25.3583 84.2101C26.0987 84.025 26.6232 83.9016 26.9317 83.8399C32.2995 82.6678 36.7418 81.9275 40.2587 81.619C41.1842 81.619 41.6469 81.4648 41.6469 81.1563C41.6469 81.0329 41.7086 80.9712 41.832 80.9712C41.8937 80.9712 41.9862 81.0329 42.1096 81.1563C42.4181 81.4648 42.6958 81.619 42.9426 81.619C43.1894 81.619 43.4979 81.4956 43.8681 81.2489C44.2383 81.0021 44.5159 80.8787 44.701 80.8787C44.9478 80.8787 45.2871 81.0329 45.719 81.3414C45.9658 81.5882 46.1509 81.7115 46.2743 81.7115C46.5211 81.7115 46.7988 81.4648 47.1073 80.9712C47.3541 80.5394 47.57 80.3235 47.7551 80.3235C47.8168 80.3235 47.8785 80.3543 47.9402 80.416C48.1253 80.4777 48.2795 80.5085 48.4029 80.5085C50.1922 80.5085 52.1357 79.9225 54.2335 78.7503C56.393 77.5782 58.0897 75.604 59.3237 72.8278C59.5088 72.1492 59.7864 71.7174 60.1566 71.5323C60.4034 71.4089 60.5268 71.2238 60.5268 70.9771C60.5268 70.2985 63.6426 64.9004 69.8742 54.7828C76.1058 44.6036 79.4067 39.514 79.7769 39.514C79.7769 39.514 82.6151 34.887 88.2914 25.6332C90.019 22.857 91.4689 20.2043 92.6412 17.6749C93.8135 15.0838 94.3996 13.3256 94.3996 12.4002C94.3996 12.03 94.2762 11.8449 94.0294 11.8449C93.7826 11.8449 93.4124 12.2459 92.9188 13.0479C92.3019 14.1584 91.7774 14.7136 91.3455 14.7136C91.2221 14.7136 91.1604 14.6519 91.1604 14.5286C91.1604 14.2818 91.3147 14.0659 91.6232 13.8808C92.0551 13.6957 92.271 13.4489 92.271 13.1405C92.271 13.0171 92.9497 11.1972 94.3071 7.6807C95.6645 4.16424 96.3431 2.406 96.3431 2.406C96.3431 2.22093 96.2506 1.91246 96.0655 1.48062C95.8804 1.04877 95.7878 0.740308 95.7878 0.555231C95.7878 0.185077 95.9421 0 96.2506 0C96.8059 0 97.1761 0.678616 97.3612 2.03585C97.3612 2.15923 97.3303 2.34431 97.2686 2.59108C97.2069 2.83785 97.1761 2.99208 97.1761 3.05377C97.1761 3.42393 97.4846 3.609 98.1016 3.609C99.2738 3.609 100.446 4.31847 101.618 5.73739C102.852 7.15632 104.518 9.74739 106.616 13.5106C107.912 15.9166 109.454 18.0142 111.243 19.8033C112.848 21.3456 114.082 23.3814 114.945 25.9108C115.809 28.4402 116.241 31.1238 116.241 33.9617C116.241 37.6015 115.285 41.5807 113.372 45.8991C111.521 50.2176 109.269 54.752 106.616 59.5023C106.122 60.366 105.783 60.9521 105.598 61.2605C105.413 61.6307 105.135 62.1551 104.765 62.8337C100.014 71.1621 97.6388 75.604 97.6388 76.1592L97.7314 76.2518C97.7931 76.3135 99.1505 76.3752 101.804 76.4369C112.786 76.6836 121.115 77.1155 126.792 77.7324C128.951 74.2159 130.031 72.2109 130.031 71.7174C130.031 71.7174 130 71.6865 129.938 71.6248C129.877 71.6248 129.846 71.594 129.846 71.5323C129.846 71.3472 131.481 68.6328 134.751 63.3889C138.021 58.0834 141.754 52.1609 145.949 45.6215C150.145 39.0204 153.847 33.3756 157.055 28.687C160.263 23.9366 162.084 21.5615 162.515 21.5615C162.701 21.5615 162.793 21.4689 162.793 21.2839C162.793 20.5436 163.564 19.4948 165.107 18.1376C165.909 17.3972 166.31 16.9346 166.31 16.7495C166.31 16.441 166.495 16.1017 166.865 15.7316C167.297 15.2997 167.606 15.0838 167.791 15.0838L167.883 15.1763C167.883 15.4231 166.804 17.0579 164.644 20.0809C162.361 23.2272 160.695 25.5715 159.646 27.1138C155.944 32.296 151.903 38.2493 147.523 44.9737C143.204 51.6982 139.44 57.7441 136.232 63.1113C133.023 68.4168 131.419 71.193 131.419 71.4398L131.512 71.5323C131.512 71.594 131.327 71.8408 130.956 72.2726C130.339 73.0129 130.031 73.5065 130.031 73.7532C130.031 73.8766 130.062 73.9692 130.123 74.0308C130.185 74.0925 130.216 74.1234 130.216 74.1234C130.216 74.1851 130.154 74.2468 130.031 74.3085C129.537 74.4318 129.198 74.8945 129.013 75.6965C128.828 76.5602 128.396 77.0538 127.717 77.1772C127.655 77.1772 127.625 77.1772 127.625 77.1772C127.625 77.3005 127.933 77.4856 128.55 77.7324C129.229 77.9792 129.846 78.1025 130.401 78.1025C130.956 78.1025 131.481 77.8558 131.974 77.3622C132.468 76.807 133.178 75.6657 134.103 73.9383C139.656 64.1909 143.296 57.8366 145.024 54.8754C146.813 51.9141 148.664 49.0454 150.577 46.2693C152.489 43.308 154.371 40.4085 156.222 37.5707C161.22 29.9825 166.557 22.2709 172.233 14.436C173.961 12.03 175.102 10.3952 175.657 9.53147C176.274 8.60609 176.583 7.95832 176.583 7.58816C176.583 7.46478 176.49 7.31055 176.305 7.12547C176.182 7.06378 176.12 7.00208 176.12 6.94039C176.799 6.94039 177.971 6.29262 179.637 4.99708C181.179 3.82493 182.259 3.23885 182.876 3.23885C184.604 3.23885 186.393 4.44185 188.244 6.84785C190.095 9.19216 191.668 11.8449 192.964 14.8062C194.321 17.7057 195 19.5873 195 20.451C195 20.8212 194.877 21.3764 194.63 22.1167C194.383 22.857 194.26 23.4431 194.26 23.8749C194.26 24.1217 194.29 24.3376 194.352 24.5227C194.414 24.5844 194.445 24.6461 194.445 24.7078L194.352 24.8003C194.229 24.8003 194.013 24.7386 193.704 24.6153C193.519 24.5536 193.396 24.5227 193.334 24.5227C193.211 24.5227 193.149 24.5536 193.149 24.6153C193.149 24.6769 193.242 24.862 193.427 25.1705C193.673 25.664 193.797 25.9725 193.797 26.0959C193.797 26.1576 193.766 26.1884 193.704 26.1884C193.643 26.1884 193.55 26.1884 193.427 26.1884C193.303 26.1267 193.18 26.0959 193.056 26.0959C192.625 26.0959 192.285 26.4969 192.038 27.2989C191.792 28.0392 191.668 28.9954 191.668 30.1676C191.668 30.1676 191.637 30.1059 191.576 29.9825C191.267 29.4273 190.99 29.1496 190.743 29.1496C190.496 29.1496 190.373 29.273 190.373 29.5198C190.373 29.7049 190.403 29.8591 190.465 29.9825C190.465 30.476 190.157 31.0313 189.54 31.6482C189.108 32.08 188.892 32.4193 188.892 32.6661C188.892 32.7278 188.923 32.8203 188.984 32.9437C189.046 33.0671 189.077 33.1905 189.077 33.3139C189.077 33.3756 189.046 33.4064 188.984 33.4064C188.984 33.4064 188.923 33.3756 188.799 33.3139C188.614 33.2522 188.491 33.2213 188.429 33.2213C188.306 33.2213 188.244 33.3447 188.244 33.5915C188.244 33.6532 188.244 33.7457 188.244 33.8691C188.306 33.9925 188.337 34.1159 188.337 34.2393C188.337 34.6711 188.121 35.1646 187.689 35.7199C187.38 36.1517 187.226 36.5219 187.226 36.8303C187.288 36.892 187.318 36.9846 187.318 37.108C187.318 37.1697 187.226 37.2313 187.041 37.293C186.732 37.293 186.578 37.3856 186.578 37.5707C186.578 37.6323 186.609 37.7249 186.671 37.8483C186.732 37.91 186.763 37.9717 186.763 38.0333C186.763 38.2184 186.455 38.4343 185.838 38.6811C185.097 38.9896 184.727 39.298 184.727 39.6065C184.727 39.7916 184.82 39.8841 185.005 39.8841C185.066 39.8841 185.159 39.8533 185.282 39.7916C185.406 39.7299 185.467 39.699 185.467 39.699C185.529 39.699 185.56 39.7607 185.56 39.8841C185.56 40.0692 185.498 40.2851 185.375 40.5319C185.252 40.7787 185.097 40.902 184.912 40.902C184.912 40.902 184.851 40.8712 184.727 40.8095C184.604 40.7478 184.542 40.717 184.542 40.717C184.419 40.717 184.295 40.8404 184.172 41.0871C184.172 41.3339 184.079 41.4573 183.894 41.4573C183.894 41.4573 183.802 41.4264 183.617 41.3647C183.493 41.303 183.401 41.2722 183.339 41.2722C183.339 41.4573 183.493 41.8583 183.802 42.4752C183.925 42.7837 183.987 42.9687 183.987 43.0304C183.987 43.1538 183.832 43.2464 183.524 43.308C182.907 43.4314 182.598 43.7399 182.598 44.2334C182.598 44.727 182.321 45.2822 181.766 45.8991C181.272 46.516 180.84 46.8245 180.47 46.8245C180.285 46.8245 180.192 46.7937 180.192 46.732C180.131 46.732 180.1 46.7628 180.1 46.8245C180.1 46.8862 180.131 47.1021 180.192 47.4723C180.316 47.9041 180.377 48.1817 180.377 48.3051C180.377 48.5519 180.316 48.6753 180.192 48.6753C180.192 48.6753 180.131 48.6444 180.007 48.5827C179.884 48.521 179.791 48.4902 179.729 48.4902C179.544 48.4902 179.452 48.7987 179.452 49.4156C179.452 49.9708 179.39 50.4027 179.267 50.7111C179.143 51.0196 178.866 51.1738 178.434 51.1738C178.372 51.1738 178.28 51.143 178.156 51.0813C178.033 51.0196 177.94 50.9887 177.879 50.9887C177.755 50.9887 177.693 51.1121 177.693 51.3589C177.693 51.4823 177.724 51.6982 177.786 52.0067C177.848 52.2534 177.879 52.4077 177.879 52.4694C177.879 52.9012 177.601 53.3331 177.046 53.7649C176.552 54.0734 176.305 54.4127 176.305 54.7828C176.305 54.8445 176.336 54.9371 176.398 55.0604C176.459 55.1838 176.49 55.2764 176.49 55.3381C176.49 55.6465 176.12 56.0475 175.38 56.5411C174.578 57.0963 174.177 57.559 174.177 57.9291C174.177 58.1759 174.3 58.2993 174.547 58.2993L175.009 58.1142C175.071 58.1142 175.102 58.1451 175.102 58.2068C175.102 58.3918 174.67 58.7003 173.806 59.1321C173.004 59.5023 172.326 59.6874 171.77 59.6874C171.77 59.7491 171.894 59.9033 172.14 60.1501C172.387 60.4585 172.511 60.6744 172.511 60.7978C172.511 61.0446 172.14 61.3839 171.4 61.8158C171.092 62.0008 170.937 62.1242 170.937 62.1859H171.308L171.955 62.0008C172.14 62.0008 172.233 62.0625 172.233 62.1859C172.233 62.2476 172.048 62.4635 171.678 62.8337C170.691 63.8825 170.197 64.7153 170.197 65.3322C170.197 65.4556 169.95 65.6715 169.457 65.98C168.593 66.5969 168.161 67.1213 168.161 67.5531L168.253 67.6457L168.624 67.4606C168.685 67.4606 168.716 67.5223 168.716 67.6457C168.716 68.0158 168.439 68.4168 167.883 68.8487C167.698 68.9721 167.606 69.0646 167.606 69.1263C167.606 69.3731 167.667 69.589 167.791 69.7741V69.8666C167.606 69.8666 167.143 69.5273 166.402 68.8487C166.279 68.787 166.187 68.7253 166.125 68.6636C166.125 68.7253 166.156 68.8487 166.217 69.0338C166.279 69.4656 166.31 69.8666 166.31 70.2368C166.31 70.8537 166.187 71.4706 165.94 72.0875C165.755 72.7045 165.539 73.0129 165.292 73.0129C165.292 73.0129 165.23 72.9821 165.107 72.9204C165.107 72.9204 165.076 72.9204 165.014 72.9204C164.891 72.9204 164.829 73.2288 164.829 73.8458C164.829 74.3393 164.49 74.8637 163.811 75.4189C163.379 75.8508 163.163 76.1592 163.163 76.3443L163.348 76.7145C163.348 76.7762 163.225 76.9304 162.978 77.1772C162.238 77.6707 161.868 78.1951 161.868 78.7503C161.868 79.2439 161.744 79.6757 161.497 80.0459C161.251 80.3543 160.85 80.6936 160.294 81.0638C160.171 81.1872 160.078 81.2797 160.017 81.3414C161.251 81.8349 162.67 82.3593 164.274 82.9145C165.323 83.2847 166.001 83.5623 166.31 83.7474C166.618 83.8708 166.773 84.025 166.773 84.2101C166.773 84.3952 166.649 84.4877 166.402 84.4877C166.279 84.4877 165.816 84.3952 165.014 84.2101C163.965 83.9633 163.318 83.8399 163.071 83.8399C163.071 83.9016 164.644 84.5494 167.791 85.7832C167.976 85.8449 168.13 85.9066 168.253 85.9683C174.362 88.1892 178.773 90.1942 181.488 91.9833C184.203 93.7724 186.177 96.0242 187.411 98.7386C188.522 101.145 189.077 103.304 189.077 105.216C189.077 107.005 188.552 108.517 187.504 109.751C186.516 110.985 185.591 111.602 184.727 111.602C184.295 111.602 184.079 111.324 184.079 110.769C184.079 110.337 184.234 109.812 184.542 109.195C184.851 108.579 185.005 108.054 185.005 107.622C185.005 106.142 184.388 104.353 183.154 102.255C181.92 100.096 181.056 99.0163 180.562 99.0163C180.501 99.0163 180.408 99.0471 180.285 99.1088C180.223 99.1705 180.161 99.2013 180.1 99.2013C179.668 99.2013 179.051 99.0163 178.249 98.6461C177.508 98.2759 177.138 97.9675 177.138 97.7207C177.138 97.5973 176.953 97.5356 176.583 97.5356C176.459 97.5356 176.213 97.5665 175.842 97.6282C175.534 97.6899 175.318 97.7207 175.195 97.7207C174.763 97.7207 174.516 97.5048 174.454 97.0729C174.454 96.8879 174.393 96.7953 174.269 96.7953C174.146 96.7953 173.837 96.9804 173.344 97.3506C173.097 97.5973 172.943 97.7207 172.881 97.7207C172.881 97.659 172.912 97.5356 172.973 97.3506C173.035 97.1655 173.066 97.0421 173.066 96.9804C173.066 96.7953 171.153 96.2709 167.328 95.4072C163.564 94.5436 160.233 94.1117 157.333 94.1117C155.297 94.1117 154.124 94.3276 153.816 94.7595C153.816 94.9446 154.279 95.2839 155.204 95.7774C155.389 95.9008 155.543 95.9933 155.667 96.055C154.803 96.1167 153.569 96.1476 151.965 96.1476H151.502C151.379 96.1476 151.317 96.3635 151.317 96.7953C151.317 96.9187 151.317 97.1346 151.317 97.4431C151.379 97.7516 151.41 97.9983 151.41 98.1834C151.41 98.5536 151.379 98.7386 151.317 98.7386L151.224 98.6461L151.039 98.5536C150.731 98.5536 150.33 98.9546 149.836 99.7566C149.404 100.559 149.188 101.206 149.188 101.7C149.188 101.885 149.219 102.07 149.281 102.255C149.343 102.378 149.374 102.44 149.374 102.44C149.374 102.564 149.343 102.625 149.281 102.625L149.096 102.533C149.034 102.471 148.942 102.44 148.818 102.44C148.51 102.44 148.17 102.656 147.8 103.088C147.43 103.52 147.245 103.828 147.245 104.013C147.245 104.137 147.276 104.198 147.337 104.198C147.399 104.198 147.523 104.168 147.708 104.106C147.831 103.982 147.924 103.921 147.985 103.921C148.17 103.921 148.263 104.013 148.263 104.198C148.263 104.445 147.985 104.723 147.43 105.031C146.936 105.34 146.69 105.586 146.69 105.772L146.782 106.512C146.782 107.376 146.073 108.609 144.654 110.213C144.16 110.769 143.913 111.108 143.913 111.231C144.037 111.231 144.222 111.17 144.468 111.046H144.654C144.962 111.046 145.209 111.17 145.394 111.416L145.486 111.694C145.486 111.756 145.456 111.787 145.394 111.787H145.209C144.962 111.663 144.777 111.602 144.654 111.602C144.222 111.602 143.759 111.941 143.265 112.619C142.833 113.236 142.617 113.884 142.617 114.563C142.617 114.933 142.803 115.365 143.173 115.858C143.296 115.982 143.358 116.074 143.358 116.136L143.265 116.228C143.265 116.228 143.204 116.198 143.08 116.136C142.895 116.013 142.741 115.951 142.617 115.951C142.124 115.951 141.754 116.136 141.507 116.506C141.26 116.815 141.044 117.277 140.859 117.894C140.551 118.82 140.18 119.282 139.748 119.282C139.563 119.282 139.44 119.221 139.378 119.097C139.255 119.097 139.224 119.128 139.286 119.19C139.286 119.251 139.378 119.467 139.563 119.837C139.81 120.393 139.934 120.763 139.934 120.948C139.934 121.01 139.841 121.071 139.656 121.133C139.224 121.318 139.008 121.688 139.008 122.243C139.008 123.045 138.607 123.446 137.805 123.446L137.065 123.354C137.065 123.477 137.25 123.847 137.62 124.464C137.805 124.773 137.897 124.958 137.897 125.02C137.897 125.143 137.25 125.945 135.954 127.426C136.016 127.796 136.201 127.981 136.509 127.981C136.694 127.981 137.003 127.827 137.435 127.518C137.62 127.333 137.743 127.241 137.805 127.241C137.867 127.241 137.897 127.271 137.897 127.333C137.897 127.395 137.897 127.426 137.897 127.426C137.836 127.549 137.805 127.611 137.805 127.611C137.805 127.981 138.607 128.536 140.211 129.276C141.322 129.832 141.877 130.202 141.877 130.387C141.877 130.387 141.846 130.418 141.785 130.479C141.723 130.541 141.692 130.572 141.692 130.572C141.692 130.757 142.371 131.065 143.728 131.497C151.379 133.657 157.61 136.618 162.423 140.381C167.297 144.144 169.734 147.846 169.734 151.486C169.734 153.213 169.086 154.848 167.791 156.39C166.495 157.932 165.508 158.704 164.829 158.704C164.459 158.704 164.274 158.519 164.274 158.148C164.274 157.778 164.459 157.254 164.829 156.575C165.261 155.712 165.477 155.033 165.477 154.539C165.477 151.516 160.911 148.895 151.78 146.674C151.78 146.674 151.687 146.643 151.502 146.581C144.407 144.977 137.928 144.175 132.067 144.175C130.278 144.175 129.136 144.545 128.643 145.286C128.149 145.964 127.902 147.044 127.902 148.524C127.902 148.956 127.995 149.172 128.18 149.172H128.458C128.458 149.234 128.272 149.45 127.902 149.82C126.977 150.622 126.514 151.146 126.514 151.393C126.514 151.455 126.607 151.516 126.792 151.578C127.224 151.763 127.439 152.041 127.439 152.411C127.439 152.905 127.254 153.151 126.884 153.151L126.607 153.059C125.99 153.059 125.65 153.367 125.589 153.984C125.403 156.02 124.972 157.531 124.293 158.519C123.984 158.95 123.83 159.351 123.83 159.722C123.83 160.277 124.139 160.925 124.756 161.665C124.879 161.788 124.941 161.85 124.941 161.85L124.848 161.942C124.848 161.942 124.786 161.912 124.663 161.85C124.478 161.727 124.355 161.665 124.293 161.665C123.861 161.665 123.522 161.942 123.275 162.498C123.09 162.991 122.935 163.701 122.812 164.626C122.689 165.551 122.534 166.014 122.349 166.014C122.288 166.014 122.133 165.983 121.887 165.922C121.763 165.86 121.701 165.829 121.701 165.829C121.701 165.829 121.763 165.922 121.887 166.107C122.257 166.662 122.442 167.032 122.442 167.217C122.442 167.341 122.349 167.495 122.164 167.68C121.732 168.235 121.516 168.945 121.516 169.808C121.516 170.302 121.671 170.579 121.979 170.641C122.041 170.641 122.072 170.672 122.072 170.734C122.072 170.857 121.948 171.011 121.701 171.196C121.393 171.443 121.239 171.659 121.239 171.844C121.239 171.967 121.27 172.122 121.331 172.307C121.393 172.43 121.424 172.523 121.424 172.584C121.424 172.708 121.3 172.8 121.054 172.862C120.745 172.924 120.591 173.109 120.591 173.417C120.591 173.479 120.622 173.633 120.683 173.88C120.745 174.127 120.776 174.312 120.776 174.435C120.776 174.805 120.653 175.206 120.406 175.638C119.974 176.378 119.758 177.242 119.758 178.229C119.758 179.155 119.573 180.111 119.203 181.098C118.956 181.777 118.832 182.363 118.832 182.856C118.832 183.041 118.863 183.319 118.925 183.689C118.987 184.121 119.018 184.491 119.018 184.799C119.018 185.355 118.956 186.188 118.832 187.298C118.462 190.012 118.277 193.066 118.277 196.459C118.277 198.557 118.709 201.426 119.573 205.065C120.498 208.705 121.578 211.913 122.812 214.689C124.046 217.466 125.126 218.854 126.051 218.854C127.224 218.854 128.211 218.237 129.013 217.003C129.321 216.571 129.537 216.355 129.661 216.355C129.722 216.355 129.753 216.386 129.753 216.448C129.753 216.571 129.815 216.633 129.938 216.633C130 216.633 130.123 216.54 130.309 216.355C130.925 215.862 131.542 215.615 132.159 215.615C133.27 215.615 133.918 216.108 134.103 217.095C134.103 217.836 133.548 218.792 132.437 219.964C131.327 221.136 130.617 221.722 130.309 221.722C130.247 221.661 130.123 221.63 129.938 221.63C129.692 221.63 129.26 221.661 128.643 221.722C127.47 221.907 126.545 222 125.866 222ZM104.858 123.261C104.858 123.323 105.074 123.354 105.505 123.354C106.554 123.354 107.418 122.614 108.097 121.133C108.837 119.652 109.578 117.647 110.318 115.118C111.12 112.589 111.675 111.324 111.984 111.324C112.169 111.324 112.262 111.262 112.262 111.139C112.262 111.077 112.231 110.985 112.169 110.861C112.046 110.614 111.984 110.429 111.984 110.306C111.984 109.997 112.076 109.751 112.262 109.566C112.323 109.504 112.385 109.381 112.447 109.195C112.57 108.887 112.663 108.702 112.724 108.64C112.909 106.789 113.495 105.278 114.483 104.106C114.791 103.736 114.945 103.458 114.945 103.273C114.945 103.026 114.945 102.872 114.945 102.81C114.884 102.687 114.853 102.594 114.853 102.533C114.853 102.224 115.038 102.07 115.408 102.07C115.778 102.07 115.963 102.163 115.963 102.348C115.963 102.594 115.439 103.982 114.39 106.512C111.984 112.126 110.781 115.488 110.781 116.599C110.781 116.907 110.626 117.154 110.318 117.339C110.009 117.462 109.824 117.678 109.763 117.987C109.763 118.604 109.393 120.208 108.652 122.799C109.146 122.922 109.639 123.045 110.133 123.169C110.503 123.231 110.812 123.261 111.058 123.261C111.675 123.261 112.169 122.953 112.539 122.336C112.971 121.657 113.526 120.331 114.205 118.357C117.105 109.596 119.018 104.97 119.943 104.476C120.005 104.414 120.036 104.383 120.036 104.383C120.036 104.383 120.005 104.353 119.943 104.291C119.82 104.291 119.758 104.26 119.758 104.198C119.758 103.767 121.023 100.774 123.552 95.2222C124.478 93.1246 124.941 92.045 124.941 91.9833C124.941 91.8599 123.09 91.7982 119.388 91.7982C117.969 91.7982 115.47 91.8291 111.891 91.8908C108.56 91.8908 106.246 91.8908 104.95 91.8908C101.372 91.8908 99.1505 91.8599 98.2867 91.7982C97.4846 91.7366 97.0835 91.6132 97.0835 91.4281V91.243C97.0218 91.243 96.9601 91.2739 96.8984 91.3356C95.973 92.0142 94.2454 92.446 91.7157 92.6311C91.654 92.6311 91.5923 92.6311 91.5306 92.6311C89.6179 92.8162 88.4457 93.0013 88.0138 93.1863C87.5819 93.3714 87.0883 93.9575 86.533 94.9446C85.9777 95.8699 85.4533 96.6719 84.9597 97.3506C83.6023 99.263 80.8875 103.705 76.8154 110.676C72.7432 117.586 70.7072 121.195 70.7072 121.503C70.7689 121.565 71.9103 121.627 74.1315 121.688C78.5738 121.873 80.795 122.058 80.795 122.243C80.795 122.367 79.1599 122.552 75.8899 122.799C73.9155 122.922 72.9283 123.015 72.9283 123.076C72.9283 123.138 75.3654 123.169 80.2397 123.169C85.916 123.169 88.7542 123.107 88.7542 122.984C88.7542 122.922 88.3531 122.86 87.551 122.799C86.2553 122.675 85.6075 122.552 85.6075 122.429C85.6075 122.243 86.5638 122.12 88.4765 122.058C90.4509 121.997 92.9188 121.966 95.8804 121.966C98.9654 121.966 100.508 122.028 100.508 122.151C100.508 122.213 100.446 122.243 100.323 122.243C100.199 122.367 100.138 122.429 100.138 122.429L100.878 122.521C101.187 122.521 101.834 122.49 102.822 122.429C103.624 122.367 104.148 122.336 104.395 122.336C105.135 122.336 105.505 122.429 105.505 122.614C105.505 122.675 105.382 122.799 105.135 122.984C104.95 123.107 104.858 123.2 104.858 123.261Z" fill="#3B5FDF"/>
</g>
<defs>
<clipPath id="clip0_212_304">
<rect width="195" height="222" fill="white"/>
</clipPath>
</defs>
</svg>
