<svg width="147" height="165" viewBox="0 0 147 165" fill="none" xmlns="http://www.w3.org/2000/svg">
<mask id="path-1-outside-1_526_3" maskUnits="userSpaceOnUse" x="3" y="2" width="141" height="160" fill="black">
<rect fill="white" x="3" y="2" width="141" height="160"/>
<path d="M92.8472 158C91.206 158 89.3544 157.366 87.2924 156.099C85.2724 154.79 84.1783 153.818 84.01 153.185C84.01 152.931 83.8206 152.72 83.4419 152.551C82.979 152.382 82.2425 151.094 81.2326 148.686C80.2226 146.236 79.7176 144.568 79.7176 143.681C79.7176 143.554 79.7597 143.406 79.8439 143.237C79.8439 143.195 79.8439 143.174 79.8439 143.174C79.8439 143.047 79.7807 142.984 79.6545 142.984C79.2337 142.984 78.6024 139.752 77.7608 133.29C77.6346 132.403 77.5714 130.312 77.5714 127.017C77.5714 121.061 77.9081 116.161 78.5814 112.318C78.6235 112.106 78.6445 111.959 78.6445 111.874C78.8129 110.649 79.0233 109.297 79.2757 107.819C79.5703 106.214 79.7386 104.947 79.7807 104.018C73.0055 104.102 68.4396 104.186 66.0831 104.271C63.7265 104.355 61.5382 104.503 59.5183 104.714C57.4142 104.883 55.3522 105.031 53.3322 105.158C52.4906 105.158 51.8383 105.242 51.3754 105.411C50.9125 105.58 50.2182 105.665 49.2924 105.665C48.3666 105.665 47.6722 105.749 47.2093 105.918C46.7885 106.087 46.3887 106.446 46.01 106.995C45.6733 107.502 45.2315 108.41 44.6844 109.72C43.9269 111.409 43.3378 112.508 42.9169 113.015C42.8328 113.099 42.7907 113.205 42.7907 113.331C42.7907 113.627 42.2226 115.127 41.0864 117.83C39.9502 120.533 39.2979 121.969 39.1296 122.138C39.1296 122.138 38.309 124.799 36.6678 130.122C36.6257 130.671 36.4153 132.149 36.0365 134.557C35.6578 136.922 35.4053 138.211 35.2791 138.422C35.1949 138.422 35.1528 138.19 35.1528 137.725C35.1528 136.458 35.3001 134.388 35.5947 131.516C35.5947 130.967 35.7209 130.565 35.9734 130.312C36.0576 130.227 36.0997 130.143 36.0997 130.058L36.0365 129.742C35.9945 129.657 35.9734 129.551 35.9734 129.425C35.9734 129.256 36.0365 129.108 36.1628 128.981C36.289 128.812 36.3522 128.622 36.3522 128.411C36.3522 128.284 36.3311 128.115 36.289 127.904C36.247 127.735 36.2259 127.63 36.2259 127.587C36.2259 127.461 36.247 127.397 36.289 127.397C36.289 127.397 36.3311 127.418 36.4153 127.461C36.4153 127.461 36.4363 127.461 36.4784 127.461C36.6888 127.461 36.8992 127.102 37.1096 126.383C37.32 125.623 37.4252 124.926 37.4252 124.293C37.4252 124.081 37.3832 123.849 37.299 123.596C37.2569 123.511 37.2359 123.448 37.2359 123.406C37.2359 123.321 37.278 123.279 37.3621 123.279C37.4042 123.279 37.4673 123.321 37.5515 123.406C37.7198 123.448 37.804 123.469 37.804 123.469C37.8882 123.469 37.9302 123.427 37.9302 123.342C37.9302 123.3 37.8882 123.152 37.804 122.899C37.7198 122.603 37.6777 122.413 37.6777 122.328C37.6777 122.244 37.7198 122.202 37.804 122.202C37.8461 122.202 37.9092 122.223 37.9934 122.265C38.0775 122.307 38.1406 122.328 38.1827 122.328C38.2669 122.328 38.309 122.244 38.309 122.075C38.309 121.272 38.4563 120.681 38.7508 120.301C38.8771 120.132 38.9402 120.005 38.9402 119.921C38.9402 119.879 38.9192 119.857 38.8771 119.857C38.835 119.815 38.814 119.794 38.814 119.794C38.814 119.794 38.8771 119.731 39.0033 119.604C39.2558 119.393 39.3821 119.245 39.3821 119.16C39.3821 119.118 39.34 119.097 39.2558 119.097C39.0454 119.097 38.9402 118.992 38.9402 118.78C38.9402 118.442 39.1085 118.189 39.4452 118.02C39.7818 117.893 40.0343 117.682 40.2027 117.386C40.4131 117.091 40.5183 116.52 40.5183 115.676C40.5183 115.169 40.6866 114.683 41.0233 114.218C41.2757 113.881 41.4441 113.585 41.5282 113.331C41.7387 111.98 42.1174 111.093 42.6645 110.67C42.7065 110.628 42.7276 110.607 42.7276 110.607C42.7276 110.607 42.6645 110.628 42.5382 110.67C42.3278 110.797 42.2015 110.86 42.1595 110.86C42.0753 110.86 42.0332 110.839 42.0332 110.797C42.0332 110.586 42.454 109.973 43.2957 108.96C43.969 108.199 44.3056 107.756 44.3056 107.629C44.2636 107.629 44.1794 107.65 44.0532 107.692C43.8848 107.777 43.7586 107.819 43.6744 107.819C43.6744 107.777 43.7375 107.608 43.8638 107.312C44.0321 106.974 44.1163 106.763 44.1163 106.679C44.1163 106.51 43.99 106.425 43.7375 106.425C43.3588 106.425 43.1694 106.615 43.1694 106.995L43.2326 107.439C43.2326 107.481 43.1063 107.692 42.8538 108.073C41.6755 109.889 41.0864 111.409 41.0864 112.634C41.0864 112.761 41.1074 112.888 41.1495 113.015C41.1495 113.057 41.1495 113.078 41.1495 113.078C41.1495 113.247 41.0864 113.331 40.9601 113.331C40.9601 113.331 40.9181 113.331 40.8339 113.331C40.7497 113.289 40.6866 113.268 40.6445 113.268C40.5604 113.268 40.2447 113.902 39.6977 115.169C39.1927 116.436 38.9402 117.133 38.9402 117.26C38.856 117.64 38.3931 119.076 37.5515 121.568C37.2569 122.413 37.1096 122.835 37.1096 122.835C37.1096 122.878 37.0886 122.92 37.0465 122.962C36.9623 123.173 36.8782 123.321 36.794 123.406C36.289 124.208 35.7841 126.257 35.2791 129.551C34.8162 132.804 34.5847 135.486 34.5847 137.598C34.5847 140.048 34.7741 141.822 35.1528 142.92C35.5316 144.019 36.3101 145.434 37.4884 147.165C37.6146 147.334 37.7198 147.482 37.804 147.609C39.1506 147.609 40.2237 147.757 41.0233 148.053C41.8649 148.306 42.2857 148.707 42.2857 149.256C42.2857 149.552 42.0122 149.784 41.4651 149.953C40.9601 150.08 40.371 150.143 39.6977 150.143C37.0465 150.143 34.6058 148.834 32.3754 146.215C30.1451 143.554 28.3566 140.027 27.01 135.634C25.7054 131.199 25.0532 126.489 25.0532 121.505C25.0532 119.182 25.3267 116.014 25.8738 112.001C26.0421 110.649 26.1262 109.847 26.1262 109.593C26.1262 109.297 26.0842 109.15 26 109.15C25.7054 109.15 25.3898 110.163 25.0532 112.191C24.7165 114.218 24.5482 116.753 24.5482 119.794C24.5482 122.835 24.443 124.356 24.2326 124.356C24.0221 124.356 23.9169 123.068 23.9169 120.491C23.9169 118.421 23.9801 116.753 24.1063 115.486C24.2326 114.176 24.443 112.719 24.7375 111.114C24.8638 110.185 24.969 109.466 25.0532 108.96C24.3798 109.044 23.7907 109.129 23.2857 109.213C23.1174 109.255 23.0122 109.276 22.9701 109.276C22.7176 109.276 22.5914 109.213 22.5914 109.086L22.6545 108.833C22.6545 108.748 22.5914 108.706 22.4651 108.706C22.2126 108.706 22.0443 108.854 21.9601 109.15C21.8339 109.445 20.2137 109.783 17.0997 110.163C15.1639 110.375 14.1118 110.544 13.9435 110.67C13.7752 110.797 13.5648 110.86 13.3123 110.86C13.2281 110.86 13.1229 110.839 12.9967 110.797C12.8704 110.755 12.7863 110.734 12.7442 110.734C12.5338 110.734 12.3444 110.881 12.1761 111.177C12.134 111.262 12.113 111.304 12.113 111.304C12.0709 111.304 12.0498 111.262 12.0498 111.177C11.9657 110.755 11.7342 110.544 11.3555 110.544C11.0609 110.544 10.9136 110.565 10.9136 110.607C10.9136 110.649 11.0399 110.755 11.2924 110.924C11.4186 111.05 11.4817 111.114 11.4817 111.114C11.4817 111.198 11.1872 111.241 10.598 111.241C9.84053 111.241 9.46179 111.156 9.46179 110.987C9.46179 110.818 10.8505 110.438 13.6279 109.847C16.4474 109.255 18.2569 108.96 19.0565 108.96C19.4352 108.96 19.6877 109.044 19.814 109.213C19.856 109.255 19.8981 109.297 19.9402 109.34C20.0244 109.382 20.0875 109.403 20.1296 109.403C20.1296 109.403 20.1085 109.361 20.0664 109.276C19.9823 109.15 19.9402 109.044 19.9402 108.96C19.9402 108.748 20.2979 108.622 21.0133 108.579C21.3079 108.579 21.4972 108.558 21.5814 108.516C21.9601 108.516 22.6755 108.389 23.7276 108.136C24.8217 107.84 25.3688 107.523 25.3688 107.185C25.3688 107.101 25.3477 107.038 25.3056 106.995C24.8848 106.995 22.2337 107.481 17.3522 108.453C11.629 109.551 8.47287 110.1 7.88372 110.1C7.29457 110.1 7 109.952 7 109.657C7 109.572 7.04208 109.466 7.12625 109.34C7.50498 108.622 7.84164 107.038 8.13621 104.588C8.47287 102.476 8.89369 101.42 9.39867 101.42C9.44075 101.42 9.50388 101.441 9.58804 101.483C9.63012 101.525 9.65116 101.546 9.65116 101.546C9.69324 101.546 9.71429 101.525 9.71429 101.483C9.71429 101.483 9.69324 101.42 9.65116 101.293C9.65116 100.575 10.598 99.6457 12.4917 98.5052C14.3854 97.3225 15.5216 96.7311 15.9003 96.7311C16.1528 96.7311 16.3212 96.6255 16.4053 96.4143C16.4895 96.2454 16.6157 96.1609 16.7841 96.1609C16.8261 96.2031 16.9313 96.2243 17.0997 96.2243C17.268 96.2243 17.6678 96.1398 18.299 95.9708C18.9302 95.7596 19.2458 95.654 19.2458 95.654C19.33 95.654 20.0033 95.4639 21.2658 95.0838C24.4219 94.07 26.3367 93.5631 27.01 93.5631L27.1362 93.6265C27.4308 93.6265 27.8937 93.4787 28.5249 93.183C29.1561 92.8451 29.4718 92.5916 29.4718 92.4227C29.4718 92.3382 29.2614 92.296 28.8405 92.296C28.546 92.296 28.1462 92.3171 27.6412 92.3593C27.3466 92.4016 27.1573 92.4227 27.0731 92.4227C26.7364 92.4227 26.5681 92.3804 26.5681 92.296C26.5681 92.1692 26.7785 92.0425 27.1993 91.9158C27.6202 91.7891 28.3566 91.6412 29.4086 91.4723C29.9978 90.0361 30.6711 88.1776 31.4286 85.8966C31.9336 84.4182 32.2702 83.489 32.4385 83.1088C32.6069 82.9398 33.0066 81.9683 33.6379 80.1942C34.0166 79.0538 34.2481 78.4413 34.3322 78.3568C34.3322 78.2723 34.5006 77.8077 34.8372 76.9629C35.5105 75.1888 35.8472 74.1117 35.8472 73.7316C35.8472 73.3092 35.6788 73.098 35.3422 73.098C35.258 73.098 35.2159 73.1613 35.2159 73.288C35.258 73.5837 35.3212 73.7949 35.4053 73.9216C35.4053 73.9639 35.4053 73.985 35.4053 73.985V74.0484C35.3632 74.0484 35.2791 74.0061 35.1528 73.9216C34.8583 73.6682 34.6268 73.5415 34.4585 73.5415C34.1218 73.5415 33.9535 73.7104 33.9535 74.0484C33.9535 74.1328 33.9956 74.2807 34.0797 74.4919C34.1218 74.5763 34.1429 74.6186 34.1429 74.6186C34.0587 74.6186 33.9535 74.513 33.8272 74.3018C33.4485 73.9216 33.0066 73.7316 32.5017 73.7316C32.2492 73.7738 32.0388 73.8372 31.8704 73.9216C31.7442 74.0061 31.6811 74.0906 31.6811 74.1751C31.6811 74.3018 31.8494 74.3863 32.186 74.4285C32.6069 74.4707 32.8173 74.5975 32.8173 74.8087C32.8173 74.9354 32.7542 74.9987 32.6279 74.9987C32.165 74.9987 31.7652 74.7031 31.4286 74.1117C31.3023 73.9005 31.2182 73.7949 31.1761 73.7949C31.0919 73.7949 30.9657 73.8794 30.7973 74.0484C30.4607 74.2173 30.2082 74.3018 30.0399 74.3018C29.9557 74.3018 29.8505 74.2596 29.7243 74.1751C29.6401 74.1328 29.577 74.1117 29.5349 74.1117C29.4928 74.1117 29.4718 74.154 29.4718 74.2384C29.4718 74.3652 29.6401 74.5763 29.9767 74.872C30.1872 75.0832 30.2924 75.2099 30.2924 75.2522C30.2924 75.3367 29.9136 75.3789 29.1561 75.3789C28.9457 75.3789 28.8405 75.3578 28.8405 75.3155C28.8405 75.3155 28.8616 75.3155 28.9037 75.3155C29.1561 75.1888 29.2824 75.0199 29.2824 74.8087C29.2824 74.4707 29.0509 74.3018 28.588 74.3018C28.1251 74.3018 27.4939 74.5763 26.6944 75.1255C26.3998 75.2944 26.2315 75.3789 26.1894 75.3789C26.1894 75.3789 26.2104 75.3155 26.2525 75.1888C26.3367 75.0621 26.3787 74.9987 26.3787 74.9987C26.3787 74.9143 26.3156 74.872 26.1894 74.872C26.021 74.872 25.2215 74.9776 23.7907 75.1888C22.3599 75.3578 21.6445 75.5056 21.6445 75.6323C21.6445 75.7591 21.5183 75.8224 21.2658 75.8224C20.4662 75.8224 19.9402 75.928 19.6877 76.1392C19.6035 76.1815 19.5404 76.2026 19.4983 76.2026C19.4983 76.1603 19.5404 76.0547 19.6246 75.8858C19.7087 75.7591 19.7508 75.6746 19.7508 75.6323C19.6667 75.6323 19.5615 75.6746 19.4352 75.7591C19.0986 75.928 18.7198 76.0547 18.299 76.1392C18.1728 76.1392 17.8992 76.2026 17.4784 76.3293C16.4264 76.625 15.3953 76.7728 14.3854 76.7728C13.67 76.7728 13.2702 76.7095 13.186 76.5827C13.0177 76.2448 12.8494 75.4211 12.6811 74.1117C12.5127 72.76 12.4286 71.514 12.4286 70.3735C12.4286 69.402 12.4917 68.7895 12.6179 68.5361C12.9125 67.7757 14.0066 66.9521 15.9003 66.065C17.794 65.178 19.4773 64.6922 20.9502 64.6077C21.7918 64.6077 22.2126 64.481 22.2126 64.2276C22.2126 64.1009 22.907 63.9108 24.2957 63.6574C24.8007 63.5306 25.1584 63.4462 25.3688 63.4039C29.0299 62.6014 32.0598 62.0945 34.4585 61.8833C35.0897 61.8833 35.4053 61.7777 35.4053 61.5665C35.4053 61.482 35.4474 61.4398 35.5316 61.4398C35.5736 61.4398 35.6368 61.482 35.7209 61.5665C35.9313 61.7777 36.1207 61.8833 36.289 61.8833C36.4574 61.8833 36.6678 61.7988 36.9203 61.6298C37.1728 61.4609 37.3621 61.3764 37.4884 61.3764C37.6567 61.3764 37.8882 61.482 38.1827 61.6932C38.3511 61.8622 38.4773 61.9466 38.5615 61.9466C38.7298 61.9466 38.9192 61.7777 39.1296 61.4398C39.2979 61.1441 39.4452 60.9962 39.5714 60.9962C39.6135 60.9962 39.6556 61.0174 39.6977 61.0596C39.8239 61.1018 39.9291 61.123 40.0133 61.123C41.2337 61.123 42.5592 60.7217 43.99 59.9191C45.4629 59.1166 46.6202 57.7649 47.4618 55.8641C47.588 55.3995 47.7774 55.1038 48.0299 54.9771C48.1982 54.8926 48.2824 54.7659 48.2824 54.5969C48.2824 54.1323 50.4075 50.4363 54.6578 43.509C58.9081 36.5394 61.1595 33.0546 61.412 33.0546C61.412 33.0546 63.3477 29.8866 67.2193 23.5506C68.3976 21.6499 69.3865 19.8335 70.186 18.1017C70.9856 16.3276 71.3854 15.1238 71.3854 14.4902C71.3854 14.2368 71.3012 14.11 71.1329 14.11C70.9646 14.11 70.7121 14.3846 70.3754 14.9337C69.9546 15.694 69.5969 16.0742 69.3023 16.0742C69.2182 16.0742 69.1761 16.032 69.1761 15.9475C69.1761 15.7785 69.2813 15.6307 69.4917 15.504C69.7863 15.3772 69.9336 15.2083 69.9336 14.9971C69.9336 14.9126 70.3965 13.6665 71.3223 11.2589C72.2481 8.85119 72.711 7.64735 72.711 7.64735C72.711 7.52063 72.6478 7.30943 72.5216 7.01376C72.3953 6.71808 72.3322 6.50688 72.3322 6.38016C72.3322 6.12672 72.4374 6 72.6478 6C73.0266 6 73.2791 6.46464 73.4053 7.39391C73.4053 7.47839 73.3843 7.60511 73.3422 7.77407C73.3001 7.94303 73.2791 8.04863 73.2791 8.09087C73.2791 8.34431 73.4895 8.47103 73.9103 8.47103C74.7099 8.47103 75.5094 8.95679 76.309 9.9283C77.1506 10.8998 78.2868 12.6739 79.7176 15.2505C80.6013 16.8979 81.6534 18.334 82.8738 19.559C83.9679 20.615 84.8095 22.0089 85.3987 23.7407C85.9878 25.4726 86.2824 27.31 86.2824 29.253C86.2824 31.7452 85.6301 34.4696 84.3256 37.4264C83.0631 40.3832 81.5271 43.4878 79.7176 46.7403C79.381 47.3317 79.1495 47.7329 79.0233 47.9441C78.897 48.1976 78.7076 48.5566 78.4552 49.0213C75.2148 54.7236 73.5947 57.7649 73.5947 58.1451L73.6578 58.2084C73.6999 58.2507 74.6257 58.2929 76.4352 58.3351C83.9258 58.5041 89.6069 58.7998 93.4784 59.2222C94.9513 56.8145 95.6877 55.4417 95.6877 55.1038C95.6877 55.1038 95.6667 55.0827 95.6246 55.0404C95.5825 55.0404 95.5615 55.0193 95.5615 54.9771C95.5615 54.8504 96.6766 52.9918 98.907 49.4014C101.137 45.7688 103.683 41.7138 106.545 37.2363C109.406 32.7167 111.931 28.8517 114.12 25.6415C116.308 22.389 117.549 20.7628 117.844 20.7628C117.97 20.7628 118.033 20.6995 118.033 20.5727C118.033 20.0659 118.559 19.3478 119.611 18.4185C120.158 17.9116 120.432 17.5948 120.432 17.4681C120.432 17.2569 120.558 17.0246 120.811 16.7712C121.105 16.4755 121.316 16.3276 121.442 16.3276L121.505 16.391C121.505 16.56 120.769 17.6793 119.296 19.7491C117.739 21.9033 116.602 23.5084 115.887 24.5644C113.362 28.1125 110.606 32.1887 107.618 36.7928C104.672 41.397 102.105 45.5365 99.9169 49.2113C97.7287 52.844 96.6346 54.7448 96.6346 54.9137L96.6977 54.9771C96.6977 55.0193 96.5714 55.1883 96.3189 55.484C95.8981 55.9908 95.6877 56.3287 95.6877 56.4977C95.6877 56.5822 95.7087 56.6455 95.7508 56.6878C95.7929 56.73 95.814 56.7511 95.814 56.7511C95.814 56.7934 95.7719 56.8356 95.6877 56.8779C95.3511 56.9623 95.1196 57.2791 94.9934 57.8283C94.8671 58.4196 94.5725 58.7575 94.1096 58.842C94.0676 58.842 94.0465 58.842 94.0465 58.842C94.0465 58.9265 94.2569 59.0532 94.6777 59.2222C95.1406 59.3911 95.5615 59.4756 95.9402 59.4756C96.3189 59.4756 96.6766 59.3067 97.0133 58.9687C97.3499 58.5886 97.8339 57.8071 98.4651 56.6244C102.252 49.9505 104.735 45.5998 105.914 43.5723C107.134 41.5448 108.396 39.5807 109.701 37.6799C111.006 35.6524 112.289 33.6671 113.551 31.7241C116.96 26.5286 120.6 21.2486 124.472 15.8841C125.65 14.2368 126.429 13.1174 126.807 12.5261C127.228 11.8925 127.439 11.4489 127.439 11.1955C127.439 11.111 127.375 11.0054 127.249 10.8787C127.165 10.8365 127.123 10.7942 127.123 10.752C127.586 10.752 128.385 10.3085 129.522 9.42143C130.574 8.61887 131.31 8.21759 131.731 8.21759C132.909 8.21759 134.13 9.04127 135.392 10.6886C136.654 12.2937 137.728 14.11 138.611 16.1376C139.537 18.1228 140 19.4111 140 20.0025C140 20.2559 139.916 20.6361 139.748 21.143C139.579 21.6499 139.495 22.0511 139.495 22.3468C139.495 22.5158 139.516 22.6636 139.558 22.7903C139.6 22.8326 139.621 22.8748 139.621 22.917L139.558 22.9804C139.474 22.9804 139.327 22.9382 139.116 22.8537C138.99 22.8114 138.906 22.7903 138.864 22.7903C138.78 22.7903 138.738 22.8114 138.738 22.8537C138.738 22.8959 138.801 23.0226 138.927 23.2338C139.095 23.5718 139.179 23.783 139.179 23.8674C139.179 23.9097 139.158 23.9308 139.116 23.9308C139.074 23.9308 139.011 23.9308 138.927 23.9308C138.843 23.8886 138.759 23.8674 138.674 23.8674C138.38 23.8674 138.148 24.142 137.98 24.6911C137.812 25.198 137.728 25.8527 137.728 26.6553C137.728 26.6553 137.707 26.613 137.664 26.5286C137.454 26.1484 137.265 25.9583 137.096 25.9583C136.928 25.9583 136.844 26.0428 136.844 26.2118C136.844 26.3385 136.865 26.4441 136.907 26.5286C136.907 26.8665 136.697 27.2466 136.276 27.669C135.981 27.9647 135.834 28.197 135.834 28.366C135.834 28.4082 135.855 28.4716 135.897 28.5561C135.939 28.6405 135.96 28.725 135.96 28.8095C135.96 28.8517 135.939 28.8729 135.897 28.8729C135.897 28.8729 135.855 28.8517 135.771 28.8095C135.645 28.7673 135.56 28.7461 135.518 28.7461C135.434 28.7461 135.392 28.8306 135.392 28.9996C135.392 29.0418 135.392 29.1052 135.392 29.1897C135.434 29.2741 135.455 29.3586 135.455 29.4431C135.455 29.7388 135.308 30.0767 135.013 30.4569C134.803 30.7525 134.698 31.006 134.698 31.2172C134.74 31.2594 134.761 31.3228 134.761 31.4073C134.761 31.4495 134.698 31.4917 134.571 31.534C134.361 31.534 134.256 31.5973 134.256 31.7241C134.256 31.7663 134.277 31.8297 134.319 31.9141C134.361 31.9564 134.382 31.9986 134.382 32.0408C134.382 32.1676 134.172 32.3154 133.751 32.4844C133.246 32.6956 132.993 32.9068 132.993 33.118C132.993 33.2447 133.056 33.308 133.183 33.308C133.225 33.308 133.288 33.2869 133.372 33.2447C133.456 33.2024 133.498 33.1813 133.498 33.1813C133.54 33.1813 133.561 33.2236 133.561 33.308C133.561 33.4348 133.519 33.5826 133.435 33.7516C133.351 33.9205 133.246 34.005 133.12 34.005C133.12 34.005 133.078 33.9839 132.993 33.9416C132.909 33.8994 132.867 33.8783 132.867 33.8783C132.783 33.8783 132.699 33.9628 132.615 34.1317C132.615 34.3007 132.551 34.3852 132.425 34.3852C132.425 34.3852 132.362 34.364 132.236 34.3218C132.152 34.2796 132.089 34.2584 132.047 34.2584C132.047 34.3852 132.152 34.6597 132.362 35.0821C132.446 35.2933 132.488 35.42 132.488 35.4623C132.488 35.5468 132.383 35.6101 132.173 35.6524C131.752 35.7368 131.542 35.948 131.542 36.286C131.542 36.6239 131.352 37.004 130.973 37.4264C130.637 37.8488 130.342 38.06 130.09 38.06C129.963 38.06 129.9 38.0389 129.9 37.9967C129.858 37.9967 129.837 38.0178 129.837 38.06C129.837 38.1023 129.858 38.2501 129.9 38.5035C129.984 38.7992 130.027 38.9893 130.027 39.0738C130.027 39.2427 129.984 39.3272 129.9 39.3272C129.9 39.3272 129.858 39.3061 129.774 39.2639C129.69 39.2216 129.627 39.2005 129.585 39.2005C129.458 39.2005 129.395 39.4117 129.395 39.8341C129.395 40.2143 129.353 40.5099 129.269 40.7211C129.185 40.9323 128.996 41.0379 128.701 41.0379C128.659 41.0379 128.596 41.0168 128.512 40.9746C128.427 40.9323 128.364 40.9112 128.322 40.9112C128.238 40.9112 128.196 40.9957 128.196 41.1646C128.196 41.2491 128.217 41.397 128.259 41.6082C128.301 41.7771 128.322 41.8827 128.322 41.925C128.322 42.2206 128.133 42.5163 127.754 42.812C127.418 43.0232 127.249 43.2555 127.249 43.509C127.249 43.5512 127.27 43.6146 127.312 43.699C127.354 43.7835 127.375 43.8469 127.375 43.8891C127.375 44.1003 127.123 44.3749 126.618 44.7128C126.071 45.093 125.797 45.4098 125.797 45.6632C125.797 45.8321 125.882 45.9166 126.05 45.9166L126.365 45.7899C126.408 45.7899 126.429 45.811 126.429 45.8533C126.429 45.98 126.134 46.1912 125.545 46.4869C124.998 46.7403 124.535 46.867 124.156 46.867C124.156 46.9093 124.24 47.0149 124.409 47.1838C124.577 47.395 124.661 47.5429 124.661 47.6273C124.661 47.7963 124.409 48.0286 123.904 48.3243C123.693 48.451 123.588 48.5355 123.588 48.5777H123.841L124.282 48.451C124.409 48.451 124.472 48.4933 124.472 48.5777C124.472 48.62 124.346 48.7678 124.093 49.0213C123.42 49.7393 123.083 50.3096 123.083 50.732C123.083 50.8165 122.915 50.9643 122.578 51.1755C121.989 51.5979 121.694 51.9569 121.694 52.2526L121.757 52.316L122.01 52.1892C122.052 52.1892 122.073 52.2315 122.073 52.316C122.073 52.5694 121.884 52.844 121.505 53.1396C121.379 53.2241 121.316 53.2875 121.316 53.3297C121.316 53.4987 121.358 53.6465 121.442 53.7732V53.8366C121.316 53.8366 121 53.6043 120.495 53.1396C120.411 53.0974 120.348 53.0552 120.306 53.0129C120.306 53.0552 120.327 53.1396 120.369 53.2664C120.411 53.562 120.432 53.8366 120.432 54.09C120.432 54.5124 120.348 54.9348 120.179 55.3572C120.053 55.7796 119.906 55.9908 119.738 55.9908C119.738 55.9908 119.695 55.9697 119.611 55.9275C119.611 55.9275 119.59 55.9275 119.548 55.9275C119.464 55.9275 119.422 56.1387 119.422 56.5611C119.422 56.899 119.19 57.258 118.728 57.6382C118.433 57.9339 118.286 58.1451 118.286 58.2718L118.412 58.5252C118.412 58.5675 118.328 58.6731 118.159 58.842C117.654 59.1799 117.402 59.539 117.402 59.9191C117.402 60.257 117.318 60.5527 117.15 60.8062C116.981 61.0174 116.708 61.2497 116.329 61.5031C116.245 61.5876 116.182 61.651 116.14 61.6932C116.981 62.0311 117.949 62.3902 119.043 62.7703C119.759 63.0238 120.221 63.2138 120.432 63.3406C120.642 63.425 120.748 63.5306 120.748 63.6574C120.748 63.7841 120.663 63.8474 120.495 63.8474C120.411 63.8474 120.095 63.7841 119.548 63.6574C118.833 63.4884 118.391 63.4039 118.223 63.4039C118.223 63.4462 119.296 63.8897 121.442 64.7345C121.568 64.7767 121.673 64.819 121.757 64.8612C125.924 66.3818 128.932 67.7546 130.784 68.9796C132.636 70.2045 133.982 71.7463 134.824 73.6048C135.581 75.2522 135.96 76.7306 135.96 78.04C135.96 79.265 135.602 80.2998 134.887 81.1446C134.214 81.9894 133.583 82.4118 132.993 82.4118C132.699 82.4118 132.551 82.2218 132.551 81.8416C132.551 81.5459 132.657 81.1869 132.867 80.7645C133.078 80.3421 133.183 79.983 133.183 79.6874C133.183 78.6736 132.762 77.4487 131.92 76.0125C131.079 74.5341 130.489 73.7949 130.153 73.7949C130.111 73.7949 130.048 73.816 129.963 73.8583C129.921 73.9005 129.879 73.9216 129.837 73.9216C129.543 73.9216 129.122 73.7949 128.575 73.5415C128.07 73.288 127.817 73.0768 127.817 72.9079C127.817 72.8234 127.691 72.7812 127.439 72.7812C127.354 72.7812 127.186 72.8023 126.934 72.8445C126.723 72.8868 126.576 72.9079 126.492 72.9079C126.197 72.9079 126.029 72.76 125.987 72.4644C125.987 72.3376 125.945 72.2743 125.86 72.2743C125.776 72.2743 125.566 72.401 125.229 72.6544C125.061 72.8234 124.956 72.9079 124.914 72.9079C124.914 72.8656 124.935 72.7812 124.977 72.6544C125.019 72.5277 125.04 72.4432 125.04 72.401C125.04 72.2743 123.735 71.9152 121.126 71.3239C118.559 70.7325 116.287 70.4368 114.309 70.4368C112.92 70.4368 112.121 70.5847 111.91 70.8804C111.91 71.0071 112.226 71.2394 112.857 71.5773C112.983 71.6618 113.089 71.7252 113.173 71.7674C112.584 71.8096 111.742 71.8308 110.648 71.8308H110.332C110.248 71.8308 110.206 71.9786 110.206 72.2743C110.206 72.3588 110.206 72.5066 110.206 72.7178C110.248 72.929 110.269 73.098 110.269 73.2247C110.269 73.4781 110.248 73.6048 110.206 73.6048L110.143 73.5415L110.017 73.4781C109.806 73.4781 109.533 73.7527 109.196 74.3018C108.901 74.8509 108.754 75.2944 108.754 75.6323C108.754 75.7591 108.775 75.8858 108.817 76.0125C108.859 76.097 108.88 76.1392 108.88 76.1392C108.88 76.2237 108.859 76.2659 108.817 76.2659L108.691 76.2026C108.649 76.1603 108.586 76.1392 108.502 76.1392C108.291 76.1392 108.06 76.2871 107.807 76.5827C107.555 76.8784 107.429 77.0896 107.429 77.2163C107.429 77.3008 107.45 77.3431 107.492 77.3431C107.534 77.3431 107.618 77.3219 107.744 77.2797C107.828 77.1952 107.891 77.153 107.934 77.153C108.06 77.153 108.123 77.2163 108.123 77.3431C108.123 77.512 107.934 77.7021 107.555 77.9133C107.218 78.1245 107.05 78.2935 107.05 78.4202L107.113 78.927C107.113 79.5184 106.629 80.3632 105.661 81.4614C105.324 81.8416 105.156 82.0739 105.156 82.1584C105.24 82.1584 105.367 82.1162 105.535 82.0317H105.661C105.872 82.0317 106.04 82.1162 106.166 82.2851L106.229 82.4752C106.229 82.5174 106.208 82.5386 106.166 82.5386H106.04C105.872 82.4541 105.745 82.4118 105.661 82.4118C105.367 82.4118 105.051 82.6442 104.714 83.1088C104.42 83.5312 104.272 83.9747 104.272 84.4393C104.272 84.6928 104.399 84.9885 104.651 85.3264C104.735 85.4109 104.777 85.4742 104.777 85.5165L104.714 85.5798C104.714 85.5798 104.672 85.5587 104.588 85.5165C104.462 85.432 104.357 85.3897 104.272 85.3897C103.936 85.3897 103.683 85.5165 103.515 85.7699C103.347 85.9811 103.199 86.2979 103.073 86.7203C102.863 87.3539 102.61 87.6707 102.316 87.6707C102.189 87.6707 102.105 87.6285 102.063 87.544C101.979 87.544 101.958 87.5651 102 87.6073C102 87.6496 102.063 87.7974 102.189 88.0508C102.358 88.431 102.442 88.6844 102.442 88.8112C102.442 88.8534 102.379 88.8956 102.252 88.9379C101.958 89.0646 101.811 89.318 101.811 89.6982C101.811 90.2473 101.537 90.5219 100.99 90.5219L100.485 90.4585C100.485 90.543 100.611 90.7964 100.864 91.2188C100.99 91.43 101.053 91.5568 101.053 91.599C101.053 91.6835 100.611 92.2326 99.7276 93.2464C99.7697 93.4998 99.8959 93.6265 100.106 93.6265C100.233 93.6265 100.443 93.5209 100.738 93.3097C100.864 93.183 100.948 93.1196 100.99 93.1196C101.032 93.1196 101.053 93.1407 101.053 93.183C101.053 93.2252 101.053 93.2464 101.053 93.2464C101.011 93.3308 100.99 93.3731 100.99 93.3731C100.99 93.6265 101.537 94.0067 102.631 94.5135C103.389 94.8937 103.767 95.1471 103.767 95.2739C103.767 95.2739 103.746 95.295 103.704 95.3372C103.662 95.3795 103.641 95.4006 103.641 95.4006C103.641 95.5273 104.104 95.7385 105.03 96.0342C110.248 97.5126 114.498 99.5401 117.781 102.117C121.105 104.693 122.767 107.228 122.767 109.72C122.767 110.903 122.326 112.022 121.442 113.078C120.558 114.134 119.885 114.662 119.422 114.662C119.169 114.662 119.043 114.535 119.043 114.282C119.043 114.028 119.169 113.669 119.422 113.205C119.717 112.613 119.864 112.149 119.864 111.811C119.864 109.741 116.75 107.946 110.522 106.425C110.522 106.425 110.458 106.404 110.332 106.362C105.493 105.264 101.074 104.714 97.0764 104.714C95.856 104.714 95.0775 104.968 94.7409 105.475C94.4042 105.939 94.2359 106.679 94.2359 107.692C94.2359 107.988 94.299 108.136 94.4253 108.136H94.6146C94.6146 108.178 94.4884 108.326 94.2359 108.579C93.6047 109.129 93.289 109.488 93.289 109.657C93.289 109.699 93.3522 109.741 93.4784 109.783C93.773 109.91 93.9203 110.1 93.9203 110.353C93.9203 110.691 93.794 110.86 93.5415 110.86L93.3522 110.797C92.9313 110.797 92.6999 111.008 92.6578 111.431C92.5316 112.825 92.237 113.859 91.7741 114.535C91.5637 114.831 91.4585 115.105 91.4585 115.359C91.4585 115.739 91.6689 116.183 92.0897 116.689C92.1739 116.774 92.216 116.816 92.216 116.816L92.1528 116.88C92.1528 116.88 92.1107 116.858 92.0266 116.816C91.9003 116.732 91.8162 116.689 91.7741 116.689C91.4795 116.689 91.2481 116.88 91.0797 117.26C90.9535 117.598 90.8483 118.083 90.7641 118.717C90.68 119.351 90.5748 119.667 90.4485 119.667C90.4064 119.667 90.3012 119.646 90.1329 119.604C90.0487 119.562 90.0066 119.541 90.0066 119.541C90.0066 119.541 90.0487 119.604 90.1329 119.731C90.3854 120.111 90.5116 120.364 90.5116 120.491C90.5116 120.576 90.4485 120.681 90.3223 120.808C90.0277 121.188 89.8804 121.674 89.8804 122.265C89.8804 122.603 89.9856 122.793 90.196 122.835C90.2381 122.835 90.2591 122.856 90.2591 122.899C90.2591 122.983 90.175 123.089 90.0066 123.215C89.7962 123.384 89.691 123.532 89.691 123.659C89.691 123.743 89.7121 123.849 89.7542 123.976C89.7962 124.06 89.8173 124.124 89.8173 124.166C89.8173 124.25 89.7331 124.314 89.5648 124.356C89.3544 124.398 89.2492 124.525 89.2492 124.736C89.2492 124.778 89.2702 124.884 89.3123 125.053C89.3544 125.222 89.3754 125.349 89.3754 125.433C89.3754 125.687 89.2913 125.961 89.1229 126.257C88.8284 126.764 88.6811 127.355 88.6811 128.031C88.6811 128.664 88.5548 129.319 88.3023 129.995C88.134 130.46 88.0498 130.861 88.0498 131.199C88.0498 131.326 88.0709 131.516 88.113 131.769C88.155 132.065 88.1761 132.318 88.1761 132.529C88.1761 132.91 88.134 133.48 88.0498 134.24C87.7973 136.099 87.6711 138.19 87.6711 140.513C87.6711 141.949 87.9657 143.913 88.5548 146.405C89.1861 148.897 89.9225 151.094 90.7641 152.995C91.6058 154.895 92.3422 155.846 92.9734 155.846C93.773 155.846 94.4463 155.423 94.9934 154.579C95.2038 154.283 95.3511 154.135 95.4352 154.135C95.4773 154.135 95.4983 154.156 95.4983 154.198C95.4983 154.283 95.5404 154.325 95.6246 154.325C95.6667 154.325 95.7508 154.262 95.8771 154.135C96.2979 153.797 96.7187 153.628 97.1395 153.628C97.897 153.628 98.3389 153.966 98.4651 154.642C98.4651 155.149 98.0864 155.804 97.3289 156.606C96.5714 157.409 96.0875 157.81 95.8771 157.81C95.835 157.768 95.7508 157.747 95.6246 157.747C95.4563 157.747 95.1617 157.768 94.7409 157.81C93.9413 157.937 93.3101 158 92.8472 158ZM78.5183 90.3952C78.5183 90.4374 78.6656 90.4585 78.9601 90.4585C79.6755 90.4585 80.2647 89.9516 80.7276 88.9379C81.2326 87.9241 81.7375 86.5513 82.2425 84.8195C82.7896 83.0877 83.1683 82.2218 83.3787 82.2218C83.505 82.2218 83.5681 82.1795 83.5681 82.095C83.5681 82.0528 83.5471 81.9894 83.505 81.905C83.4208 81.736 83.3787 81.6093 83.3787 81.5248C83.3787 81.3136 83.4419 81.1446 83.5681 81.0179C83.6102 80.9757 83.6523 80.8912 83.6944 80.7645C83.7785 80.5533 83.8416 80.4266 83.8837 80.3843C84.01 79.1171 84.4097 78.0823 85.0831 77.2797C85.2935 77.0263 85.3987 76.8362 85.3987 76.7095C85.3987 76.5405 85.3987 76.4349 85.3987 76.3927C85.3566 76.3082 85.3355 76.2448 85.3355 76.2026C85.3355 75.9914 85.4618 75.8858 85.7143 75.8858C85.9668 75.8858 86.093 75.9491 86.093 76.0759C86.093 76.2448 85.7353 77.1952 85.0199 78.927C83.3787 82.7709 82.5581 85.0729 82.5581 85.8333C82.5581 86.0445 82.4529 86.2134 82.2425 86.3401C82.0321 86.4246 81.9059 86.5725 81.8638 86.7837C81.8638 87.2061 81.6113 88.3043 81.1063 90.0784C81.443 90.1628 81.7796 90.2473 82.1163 90.3318C82.3688 90.374 82.5792 90.3952 82.7475 90.3952C83.1683 90.3952 83.505 90.184 83.7575 89.7616C84.052 89.2969 84.4308 88.3888 84.8937 87.0371C86.8715 81.039 88.1761 77.8711 88.8073 77.5331C88.8494 77.4909 88.8704 77.4698 88.8704 77.4698C88.8704 77.4698 88.8494 77.4487 88.8073 77.4064C88.7231 77.4064 88.6811 77.3853 88.6811 77.3431C88.6811 77.0474 89.5437 74.9987 91.2691 71.1972C91.9003 69.761 92.216 69.0218 92.216 68.9796C92.216 68.8951 90.9535 68.8529 88.4286 68.8529C87.4607 68.8529 85.7564 68.874 83.3156 68.9162C81.0432 68.9162 79.4651 68.9162 78.5814 68.9162C76.1406 68.9162 74.6257 68.8951 74.0365 68.8529C73.4895 68.8106 73.216 68.7261 73.216 68.5994V68.4727C73.1739 68.4727 73.1318 68.4938 73.0897 68.5361C72.4585 69.0007 71.2802 69.2964 69.5548 69.4231C69.5127 69.4231 69.4707 69.4231 69.4286 69.4231C68.124 69.5498 67.3245 69.6765 67.0299 69.8032C66.7353 69.93 66.3987 70.3312 66.0199 71.0071C65.6412 71.6407 65.2835 72.1898 64.9468 72.6544C64.021 73.9639 62.1694 77.0051 59.392 81.7782C56.6146 86.5091 55.2259 88.9801 55.2259 89.1913C55.268 89.2336 56.0465 89.2758 57.5615 89.318C60.5914 89.4448 62.1063 89.5715 62.1063 89.6982C62.1063 89.7827 60.9911 89.9094 58.7608 90.0784C57.4142 90.1628 56.7409 90.2262 56.7409 90.2684C56.7409 90.3107 58.4031 90.3318 61.7276 90.3318C65.5991 90.3318 67.5349 90.2896 67.5349 90.2051C67.5349 90.1628 67.2614 90.1206 66.7143 90.0784C65.8306 89.9939 65.3887 89.9094 65.3887 89.8249C65.3887 89.6982 66.041 89.6137 67.3455 89.5715C68.6921 89.5292 70.3754 89.5081 72.3953 89.5081C74.4995 89.5081 75.5515 89.5504 75.5515 89.6348C75.5515 89.6771 75.5094 89.6982 75.4253 89.6982C75.3411 89.7827 75.299 89.8249 75.299 89.8249L75.804 89.8883C76.0144 89.8883 76.4563 89.8672 77.1296 89.8249C77.6766 89.7827 78.0343 89.7616 78.2027 89.7616C78.7076 89.7616 78.9601 89.8249 78.9601 89.9516C78.9601 89.9939 78.876 90.0784 78.7076 90.2051C78.5814 90.2896 78.5183 90.3529 78.5183 90.3952Z"/>
</mask>
<path d="M92.8472 158C91.206 158 89.3544 157.366 87.2924 156.099C85.2724 154.79 84.1783 153.818 84.01 153.185C84.01 152.931 83.8206 152.72 83.4419 152.551C82.979 152.382 82.2425 151.094 81.2326 148.686C80.2226 146.236 79.7176 144.568 79.7176 143.681C79.7176 143.554 79.7597 143.406 79.8439 143.237C79.8439 143.195 79.8439 143.174 79.8439 143.174C79.8439 143.047 79.7807 142.984 79.6545 142.984C79.2337 142.984 78.6024 139.752 77.7608 133.29C77.6346 132.403 77.5714 130.312 77.5714 127.017C77.5714 121.061 77.9081 116.161 78.5814 112.318C78.6235 112.106 78.6445 111.959 78.6445 111.874C78.8129 110.649 79.0233 109.297 79.2757 107.819C79.5703 106.214 79.7386 104.947 79.7807 104.018C73.0055 104.102 68.4396 104.186 66.0831 104.271C63.7265 104.355 61.5382 104.503 59.5183 104.714C57.4142 104.883 55.3522 105.031 53.3322 105.158C52.4906 105.158 51.8383 105.242 51.3754 105.411C50.9125 105.58 50.2182 105.665 49.2924 105.665C48.3666 105.665 47.6722 105.749 47.2093 105.918C46.7885 106.087 46.3887 106.446 46.01 106.995C45.6733 107.502 45.2315 108.41 44.6844 109.72C43.9269 111.409 43.3378 112.508 42.9169 113.015C42.8328 113.099 42.7907 113.205 42.7907 113.331C42.7907 113.627 42.2226 115.127 41.0864 117.83C39.9502 120.533 39.2979 121.969 39.1296 122.138C39.1296 122.138 38.309 124.799 36.6678 130.122C36.6257 130.671 36.4153 132.149 36.0365 134.557C35.6578 136.922 35.4053 138.211 35.2791 138.422C35.1949 138.422 35.1528 138.19 35.1528 137.725C35.1528 136.458 35.3001 134.388 35.5947 131.516C35.5947 130.967 35.7209 130.565 35.9734 130.312C36.0576 130.227 36.0997 130.143 36.0997 130.058L36.0365 129.742C35.9945 129.657 35.9734 129.551 35.9734 129.425C35.9734 129.256 36.0365 129.108 36.1628 128.981C36.289 128.812 36.3522 128.622 36.3522 128.411C36.3522 128.284 36.3311 128.115 36.289 127.904C36.247 127.735 36.2259 127.63 36.2259 127.587C36.2259 127.461 36.247 127.397 36.289 127.397C36.289 127.397 36.3311 127.418 36.4153 127.461C36.4153 127.461 36.4363 127.461 36.4784 127.461C36.6888 127.461 36.8992 127.102 37.1096 126.383C37.32 125.623 37.4252 124.926 37.4252 124.293C37.4252 124.081 37.3832 123.849 37.299 123.596C37.2569 123.511 37.2359 123.448 37.2359 123.406C37.2359 123.321 37.278 123.279 37.3621 123.279C37.4042 123.279 37.4673 123.321 37.5515 123.406C37.7198 123.448 37.804 123.469 37.804 123.469C37.8882 123.469 37.9302 123.427 37.9302 123.342C37.9302 123.3 37.8882 123.152 37.804 122.899C37.7198 122.603 37.6777 122.413 37.6777 122.328C37.6777 122.244 37.7198 122.202 37.804 122.202C37.8461 122.202 37.9092 122.223 37.9934 122.265C38.0775 122.307 38.1406 122.328 38.1827 122.328C38.2669 122.328 38.309 122.244 38.309 122.075C38.309 121.272 38.4563 120.681 38.7508 120.301C38.8771 120.132 38.9402 120.005 38.9402 119.921C38.9402 119.879 38.9192 119.857 38.8771 119.857C38.835 119.815 38.814 119.794 38.814 119.794C38.814 119.794 38.8771 119.731 39.0033 119.604C39.2558 119.393 39.3821 119.245 39.3821 119.16C39.3821 119.118 39.34 119.097 39.2558 119.097C39.0454 119.097 38.9402 118.992 38.9402 118.78C38.9402 118.442 39.1085 118.189 39.4452 118.02C39.7818 117.893 40.0343 117.682 40.2027 117.386C40.4131 117.091 40.5183 116.52 40.5183 115.676C40.5183 115.169 40.6866 114.683 41.0233 114.218C41.2757 113.881 41.4441 113.585 41.5282 113.331C41.7387 111.98 42.1174 111.093 42.6645 110.67C42.7065 110.628 42.7276 110.607 42.7276 110.607C42.7276 110.607 42.6645 110.628 42.5382 110.67C42.3278 110.797 42.2015 110.86 42.1595 110.86C42.0753 110.86 42.0332 110.839 42.0332 110.797C42.0332 110.586 42.454 109.973 43.2957 108.96C43.969 108.199 44.3056 107.756 44.3056 107.629C44.2636 107.629 44.1794 107.65 44.0532 107.692C43.8848 107.777 43.7586 107.819 43.6744 107.819C43.6744 107.777 43.7375 107.608 43.8638 107.312C44.0321 106.974 44.1163 106.763 44.1163 106.679C44.1163 106.51 43.99 106.425 43.7375 106.425C43.3588 106.425 43.1694 106.615 43.1694 106.995L43.2326 107.439C43.2326 107.481 43.1063 107.692 42.8538 108.073C41.6755 109.889 41.0864 111.409 41.0864 112.634C41.0864 112.761 41.1074 112.888 41.1495 113.015C41.1495 113.057 41.1495 113.078 41.1495 113.078C41.1495 113.247 41.0864 113.331 40.9601 113.331C40.9601 113.331 40.9181 113.331 40.8339 113.331C40.7497 113.289 40.6866 113.268 40.6445 113.268C40.5604 113.268 40.2447 113.902 39.6977 115.169C39.1927 116.436 38.9402 117.133 38.9402 117.26C38.856 117.64 38.3931 119.076 37.5515 121.568C37.2569 122.413 37.1096 122.835 37.1096 122.835C37.1096 122.878 37.0886 122.92 37.0465 122.962C36.9623 123.173 36.8782 123.321 36.794 123.406C36.289 124.208 35.7841 126.257 35.2791 129.551C34.8162 132.804 34.5847 135.486 34.5847 137.598C34.5847 140.048 34.7741 141.822 35.1528 142.92C35.5316 144.019 36.3101 145.434 37.4884 147.165C37.6146 147.334 37.7198 147.482 37.804 147.609C39.1506 147.609 40.2237 147.757 41.0233 148.053C41.8649 148.306 42.2857 148.707 42.2857 149.256C42.2857 149.552 42.0122 149.784 41.4651 149.953C40.9601 150.08 40.371 150.143 39.6977 150.143C37.0465 150.143 34.6058 148.834 32.3754 146.215C30.1451 143.554 28.3566 140.027 27.01 135.634C25.7054 131.199 25.0532 126.489 25.0532 121.505C25.0532 119.182 25.3267 116.014 25.8738 112.001C26.0421 110.649 26.1262 109.847 26.1262 109.593C26.1262 109.297 26.0842 109.15 26 109.15C25.7054 109.15 25.3898 110.163 25.0532 112.191C24.7165 114.218 24.5482 116.753 24.5482 119.794C24.5482 122.835 24.443 124.356 24.2326 124.356C24.0221 124.356 23.9169 123.068 23.9169 120.491C23.9169 118.421 23.9801 116.753 24.1063 115.486C24.2326 114.176 24.443 112.719 24.7375 111.114C24.8638 110.185 24.969 109.466 25.0532 108.96C24.3798 109.044 23.7907 109.129 23.2857 109.213C23.1174 109.255 23.0122 109.276 22.9701 109.276C22.7176 109.276 22.5914 109.213 22.5914 109.086L22.6545 108.833C22.6545 108.748 22.5914 108.706 22.4651 108.706C22.2126 108.706 22.0443 108.854 21.9601 109.15C21.8339 109.445 20.2137 109.783 17.0997 110.163C15.1639 110.375 14.1118 110.544 13.9435 110.67C13.7752 110.797 13.5648 110.86 13.3123 110.86C13.2281 110.86 13.1229 110.839 12.9967 110.797C12.8704 110.755 12.7863 110.734 12.7442 110.734C12.5338 110.734 12.3444 110.881 12.1761 111.177C12.134 111.262 12.113 111.304 12.113 111.304C12.0709 111.304 12.0498 111.262 12.0498 111.177C11.9657 110.755 11.7342 110.544 11.3555 110.544C11.0609 110.544 10.9136 110.565 10.9136 110.607C10.9136 110.649 11.0399 110.755 11.2924 110.924C11.4186 111.05 11.4817 111.114 11.4817 111.114C11.4817 111.198 11.1872 111.241 10.598 111.241C9.84053 111.241 9.46179 111.156 9.46179 110.987C9.46179 110.818 10.8505 110.438 13.6279 109.847C16.4474 109.255 18.2569 108.96 19.0565 108.96C19.4352 108.96 19.6877 109.044 19.814 109.213C19.856 109.255 19.8981 109.297 19.9402 109.34C20.0244 109.382 20.0875 109.403 20.1296 109.403C20.1296 109.403 20.1085 109.361 20.0664 109.276C19.9823 109.15 19.9402 109.044 19.9402 108.96C19.9402 108.748 20.2979 108.622 21.0133 108.579C21.3079 108.579 21.4972 108.558 21.5814 108.516C21.9601 108.516 22.6755 108.389 23.7276 108.136C24.8217 107.84 25.3688 107.523 25.3688 107.185C25.3688 107.101 25.3477 107.038 25.3056 106.995C24.8848 106.995 22.2337 107.481 17.3522 108.453C11.629 109.551 8.47287 110.1 7.88372 110.1C7.29457 110.1 7 109.952 7 109.657C7 109.572 7.04208 109.466 7.12625 109.34C7.50498 108.622 7.84164 107.038 8.13621 104.588C8.47287 102.476 8.89369 101.42 9.39867 101.42C9.44075 101.42 9.50388 101.441 9.58804 101.483C9.63012 101.525 9.65116 101.546 9.65116 101.546C9.69324 101.546 9.71429 101.525 9.71429 101.483C9.71429 101.483 9.69324 101.42 9.65116 101.293C9.65116 100.575 10.598 99.6457 12.4917 98.5052C14.3854 97.3225 15.5216 96.7311 15.9003 96.7311C16.1528 96.7311 16.3212 96.6255 16.4053 96.4143C16.4895 96.2454 16.6157 96.1609 16.7841 96.1609C16.8261 96.2031 16.9313 96.2243 17.0997 96.2243C17.268 96.2243 17.6678 96.1398 18.299 95.9708C18.9302 95.7596 19.2458 95.654 19.2458 95.654C19.33 95.654 20.0033 95.4639 21.2658 95.0838C24.4219 94.07 26.3367 93.5631 27.01 93.5631L27.1362 93.6265C27.4308 93.6265 27.8937 93.4787 28.5249 93.183C29.1561 92.8451 29.4718 92.5916 29.4718 92.4227C29.4718 92.3382 29.2614 92.296 28.8405 92.296C28.546 92.296 28.1462 92.3171 27.6412 92.3593C27.3466 92.4016 27.1573 92.4227 27.0731 92.4227C26.7364 92.4227 26.5681 92.3804 26.5681 92.296C26.5681 92.1692 26.7785 92.0425 27.1993 91.9158C27.6202 91.7891 28.3566 91.6412 29.4086 91.4723C29.9978 90.0361 30.6711 88.1776 31.4286 85.8966C31.9336 84.4182 32.2702 83.489 32.4385 83.1088C32.6069 82.9398 33.0066 81.9683 33.6379 80.1942C34.0166 79.0538 34.2481 78.4413 34.3322 78.3568C34.3322 78.2723 34.5006 77.8077 34.8372 76.9629C35.5105 75.1888 35.8472 74.1117 35.8472 73.7316C35.8472 73.3092 35.6788 73.098 35.3422 73.098C35.258 73.098 35.2159 73.1613 35.2159 73.288C35.258 73.5837 35.3212 73.7949 35.4053 73.9216C35.4053 73.9639 35.4053 73.985 35.4053 73.985V74.0484C35.3632 74.0484 35.2791 74.0061 35.1528 73.9216C34.8583 73.6682 34.6268 73.5415 34.4585 73.5415C34.1218 73.5415 33.9535 73.7104 33.9535 74.0484C33.9535 74.1328 33.9956 74.2807 34.0797 74.4919C34.1218 74.5763 34.1429 74.6186 34.1429 74.6186C34.0587 74.6186 33.9535 74.513 33.8272 74.3018C33.4485 73.9216 33.0066 73.7316 32.5017 73.7316C32.2492 73.7738 32.0388 73.8372 31.8704 73.9216C31.7442 74.0061 31.6811 74.0906 31.6811 74.1751C31.6811 74.3018 31.8494 74.3863 32.186 74.4285C32.6069 74.4707 32.8173 74.5975 32.8173 74.8087C32.8173 74.9354 32.7542 74.9987 32.6279 74.9987C32.165 74.9987 31.7652 74.7031 31.4286 74.1117C31.3023 73.9005 31.2182 73.7949 31.1761 73.7949C31.0919 73.7949 30.9657 73.8794 30.7973 74.0484C30.4607 74.2173 30.2082 74.3018 30.0399 74.3018C29.9557 74.3018 29.8505 74.2596 29.7243 74.1751C29.6401 74.1328 29.577 74.1117 29.5349 74.1117C29.4928 74.1117 29.4718 74.154 29.4718 74.2384C29.4718 74.3652 29.6401 74.5763 29.9767 74.872C30.1872 75.0832 30.2924 75.2099 30.2924 75.2522C30.2924 75.3367 29.9136 75.3789 29.1561 75.3789C28.9457 75.3789 28.8405 75.3578 28.8405 75.3155C28.8405 75.3155 28.8616 75.3155 28.9037 75.3155C29.1561 75.1888 29.2824 75.0199 29.2824 74.8087C29.2824 74.4707 29.0509 74.3018 28.588 74.3018C28.1251 74.3018 27.4939 74.5763 26.6944 75.1255C26.3998 75.2944 26.2315 75.3789 26.1894 75.3789C26.1894 75.3789 26.2104 75.3155 26.2525 75.1888C26.3367 75.0621 26.3787 74.9987 26.3787 74.9987C26.3787 74.9143 26.3156 74.872 26.1894 74.872C26.021 74.872 25.2215 74.9776 23.7907 75.1888C22.3599 75.3578 21.6445 75.5056 21.6445 75.6323C21.6445 75.7591 21.5183 75.8224 21.2658 75.8224C20.4662 75.8224 19.9402 75.928 19.6877 76.1392C19.6035 76.1815 19.5404 76.2026 19.4983 76.2026C19.4983 76.1603 19.5404 76.0547 19.6246 75.8858C19.7087 75.7591 19.7508 75.6746 19.7508 75.6323C19.6667 75.6323 19.5615 75.6746 19.4352 75.7591C19.0986 75.928 18.7198 76.0547 18.299 76.1392C18.1728 76.1392 17.8992 76.2026 17.4784 76.3293C16.4264 76.625 15.3953 76.7728 14.3854 76.7728C13.67 76.7728 13.2702 76.7095 13.186 76.5827C13.0177 76.2448 12.8494 75.4211 12.6811 74.1117C12.5127 72.76 12.4286 71.514 12.4286 70.3735C12.4286 69.402 12.4917 68.7895 12.6179 68.5361C12.9125 67.7757 14.0066 66.9521 15.9003 66.065C17.794 65.178 19.4773 64.6922 20.9502 64.6077C21.7918 64.6077 22.2126 64.481 22.2126 64.2276C22.2126 64.1009 22.907 63.9108 24.2957 63.6574C24.8007 63.5306 25.1584 63.4462 25.3688 63.4039C29.0299 62.6014 32.0598 62.0945 34.4585 61.8833C35.0897 61.8833 35.4053 61.7777 35.4053 61.5665C35.4053 61.482 35.4474 61.4398 35.5316 61.4398C35.5736 61.4398 35.6368 61.482 35.7209 61.5665C35.9313 61.7777 36.1207 61.8833 36.289 61.8833C36.4574 61.8833 36.6678 61.7988 36.9203 61.6298C37.1728 61.4609 37.3621 61.3764 37.4884 61.3764C37.6567 61.3764 37.8882 61.482 38.1827 61.6932C38.3511 61.8622 38.4773 61.9466 38.5615 61.9466C38.7298 61.9466 38.9192 61.7777 39.1296 61.4398C39.2979 61.1441 39.4452 60.9962 39.5714 60.9962C39.6135 60.9962 39.6556 61.0174 39.6977 61.0596C39.8239 61.1018 39.9291 61.123 40.0133 61.123C41.2337 61.123 42.5592 60.7217 43.99 59.9191C45.4629 59.1166 46.6202 57.7649 47.4618 55.8641C47.588 55.3995 47.7774 55.1038 48.0299 54.9771C48.1982 54.8926 48.2824 54.7659 48.2824 54.5969C48.2824 54.1323 50.4075 50.4363 54.6578 43.509C58.9081 36.5394 61.1595 33.0546 61.412 33.0546C61.412 33.0546 63.3477 29.8866 67.2193 23.5506C68.3976 21.6499 69.3865 19.8335 70.186 18.1017C70.9856 16.3276 71.3854 15.1238 71.3854 14.4902C71.3854 14.2368 71.3012 14.11 71.1329 14.11C70.9646 14.11 70.7121 14.3846 70.3754 14.9337C69.9546 15.694 69.5969 16.0742 69.3023 16.0742C69.2182 16.0742 69.1761 16.032 69.1761 15.9475C69.1761 15.7785 69.2813 15.6307 69.4917 15.504C69.7863 15.3772 69.9336 15.2083 69.9336 14.9971C69.9336 14.9126 70.3965 13.6665 71.3223 11.2589C72.2481 8.85119 72.711 7.64735 72.711 7.64735C72.711 7.52063 72.6478 7.30943 72.5216 7.01376C72.3953 6.71808 72.3322 6.50688 72.3322 6.38016C72.3322 6.12672 72.4374 6 72.6478 6C73.0266 6 73.2791 6.46464 73.4053 7.39391C73.4053 7.47839 73.3843 7.60511 73.3422 7.77407C73.3001 7.94303 73.2791 8.04863 73.2791 8.09087C73.2791 8.34431 73.4895 8.47103 73.9103 8.47103C74.7099 8.47103 75.5094 8.95679 76.309 9.9283C77.1506 10.8998 78.2868 12.6739 79.7176 15.2505C80.6013 16.8979 81.6534 18.334 82.8738 19.559C83.9679 20.615 84.8095 22.0089 85.3987 23.7407C85.9878 25.4726 86.2824 27.31 86.2824 29.253C86.2824 31.7452 85.6301 34.4696 84.3256 37.4264C83.0631 40.3832 81.5271 43.4878 79.7176 46.7403C79.381 47.3317 79.1495 47.7329 79.0233 47.9441C78.897 48.1976 78.7076 48.5566 78.4552 49.0213C75.2148 54.7236 73.5947 57.7649 73.5947 58.1451L73.6578 58.2084C73.6999 58.2507 74.6257 58.2929 76.4352 58.3351C83.9258 58.5041 89.6069 58.7998 93.4784 59.2222C94.9513 56.8145 95.6877 55.4417 95.6877 55.1038C95.6877 55.1038 95.6667 55.0827 95.6246 55.0404C95.5825 55.0404 95.5615 55.0193 95.5615 54.9771C95.5615 54.8504 96.6766 52.9918 98.907 49.4014C101.137 45.7688 103.683 41.7138 106.545 37.2363C109.406 32.7167 111.931 28.8517 114.12 25.6415C116.308 22.389 117.549 20.7628 117.844 20.7628C117.97 20.7628 118.033 20.6995 118.033 20.5727C118.033 20.0659 118.559 19.3478 119.611 18.4185C120.158 17.9116 120.432 17.5948 120.432 17.4681C120.432 17.2569 120.558 17.0246 120.811 16.7712C121.105 16.4755 121.316 16.3276 121.442 16.3276L121.505 16.391C121.505 16.56 120.769 17.6793 119.296 19.7491C117.739 21.9033 116.602 23.5084 115.887 24.5644C113.362 28.1125 110.606 32.1887 107.618 36.7928C104.672 41.397 102.105 45.5365 99.9169 49.2113C97.7287 52.844 96.6346 54.7448 96.6346 54.9137L96.6977 54.9771C96.6977 55.0193 96.5714 55.1883 96.3189 55.484C95.8981 55.9908 95.6877 56.3287 95.6877 56.4977C95.6877 56.5822 95.7087 56.6455 95.7508 56.6878C95.7929 56.73 95.814 56.7511 95.814 56.7511C95.814 56.7934 95.7719 56.8356 95.6877 56.8779C95.3511 56.9623 95.1196 57.2791 94.9934 57.8283C94.8671 58.4196 94.5725 58.7575 94.1096 58.842C94.0676 58.842 94.0465 58.842 94.0465 58.842C94.0465 58.9265 94.2569 59.0532 94.6777 59.2222C95.1406 59.3911 95.5615 59.4756 95.9402 59.4756C96.3189 59.4756 96.6766 59.3067 97.0133 58.9687C97.3499 58.5886 97.8339 57.8071 98.4651 56.6244C102.252 49.9505 104.735 45.5998 105.914 43.5723C107.134 41.5448 108.396 39.5807 109.701 37.6799C111.006 35.6524 112.289 33.6671 113.551 31.7241C116.96 26.5286 120.6 21.2486 124.472 15.8841C125.65 14.2368 126.429 13.1174 126.807 12.5261C127.228 11.8925 127.439 11.4489 127.439 11.1955C127.439 11.111 127.375 11.0054 127.249 10.8787C127.165 10.8365 127.123 10.7942 127.123 10.752C127.586 10.752 128.385 10.3085 129.522 9.42143C130.574 8.61887 131.31 8.21759 131.731 8.21759C132.909 8.21759 134.13 9.04127 135.392 10.6886C136.654 12.2937 137.728 14.11 138.611 16.1376C139.537 18.1228 140 19.4111 140 20.0025C140 20.2559 139.916 20.6361 139.748 21.143C139.579 21.6499 139.495 22.0511 139.495 22.3468C139.495 22.5158 139.516 22.6636 139.558 22.7903C139.6 22.8326 139.621 22.8748 139.621 22.917L139.558 22.9804C139.474 22.9804 139.327 22.9382 139.116 22.8537C138.99 22.8114 138.906 22.7903 138.864 22.7903C138.78 22.7903 138.738 22.8114 138.738 22.8537C138.738 22.8959 138.801 23.0226 138.927 23.2338C139.095 23.5718 139.179 23.783 139.179 23.8674C139.179 23.9097 139.158 23.9308 139.116 23.9308C139.074 23.9308 139.011 23.9308 138.927 23.9308C138.843 23.8886 138.759 23.8674 138.674 23.8674C138.38 23.8674 138.148 24.142 137.98 24.6911C137.812 25.198 137.728 25.8527 137.728 26.6553C137.728 26.6553 137.707 26.613 137.664 26.5286C137.454 26.1484 137.265 25.9583 137.096 25.9583C136.928 25.9583 136.844 26.0428 136.844 26.2118C136.844 26.3385 136.865 26.4441 136.907 26.5286C136.907 26.8665 136.697 27.2466 136.276 27.669C135.981 27.9647 135.834 28.197 135.834 28.366C135.834 28.4082 135.855 28.4716 135.897 28.5561C135.939 28.6405 135.96 28.725 135.96 28.8095C135.96 28.8517 135.939 28.8729 135.897 28.8729C135.897 28.8729 135.855 28.8517 135.771 28.8095C135.645 28.7673 135.56 28.7461 135.518 28.7461C135.434 28.7461 135.392 28.8306 135.392 28.9996C135.392 29.0418 135.392 29.1052 135.392 29.1897C135.434 29.2741 135.455 29.3586 135.455 29.4431C135.455 29.7388 135.308 30.0767 135.013 30.4569C134.803 30.7525 134.698 31.006 134.698 31.2172C134.74 31.2594 134.761 31.3228 134.761 31.4073C134.761 31.4495 134.698 31.4917 134.571 31.534C134.361 31.534 134.256 31.5973 134.256 31.7241C134.256 31.7663 134.277 31.8297 134.319 31.9141C134.361 31.9564 134.382 31.9986 134.382 32.0408C134.382 32.1676 134.172 32.3154 133.751 32.4844C133.246 32.6956 132.993 32.9068 132.993 33.118C132.993 33.2447 133.056 33.308 133.183 33.308C133.225 33.308 133.288 33.2869 133.372 33.2447C133.456 33.2024 133.498 33.1813 133.498 33.1813C133.54 33.1813 133.561 33.2236 133.561 33.308C133.561 33.4348 133.519 33.5826 133.435 33.7516C133.351 33.9205 133.246 34.005 133.12 34.005C133.12 34.005 133.078 33.9839 132.993 33.9416C132.909 33.8994 132.867 33.8783 132.867 33.8783C132.783 33.8783 132.699 33.9628 132.615 34.1317C132.615 34.3007 132.551 34.3852 132.425 34.3852C132.425 34.3852 132.362 34.364 132.236 34.3218C132.152 34.2796 132.089 34.2584 132.047 34.2584C132.047 34.3852 132.152 34.6597 132.362 35.0821C132.446 35.2933 132.488 35.42 132.488 35.4623C132.488 35.5468 132.383 35.6101 132.173 35.6524C131.752 35.7368 131.542 35.948 131.542 36.286C131.542 36.6239 131.352 37.004 130.973 37.4264C130.637 37.8488 130.342 38.06 130.09 38.06C129.963 38.06 129.9 38.0389 129.9 37.9967C129.858 37.9967 129.837 38.0178 129.837 38.06C129.837 38.1023 129.858 38.2501 129.9 38.5035C129.984 38.7992 130.027 38.9893 130.027 39.0738C130.027 39.2427 129.984 39.3272 129.9 39.3272C129.9 39.3272 129.858 39.3061 129.774 39.2639C129.69 39.2216 129.627 39.2005 129.585 39.2005C129.458 39.2005 129.395 39.4117 129.395 39.8341C129.395 40.2143 129.353 40.5099 129.269 40.7211C129.185 40.9323 128.996 41.0379 128.701 41.0379C128.659 41.0379 128.596 41.0168 128.512 40.9746C128.427 40.9323 128.364 40.9112 128.322 40.9112C128.238 40.9112 128.196 40.9957 128.196 41.1646C128.196 41.2491 128.217 41.397 128.259 41.6082C128.301 41.7771 128.322 41.8827 128.322 41.925C128.322 42.2206 128.133 42.5163 127.754 42.812C127.418 43.0232 127.249 43.2555 127.249 43.509C127.249 43.5512 127.27 43.6146 127.312 43.699C127.354 43.7835 127.375 43.8469 127.375 43.8891C127.375 44.1003 127.123 44.3749 126.618 44.7128C126.071 45.093 125.797 45.4098 125.797 45.6632C125.797 45.8321 125.882 45.9166 126.05 45.9166L126.365 45.7899C126.408 45.7899 126.429 45.811 126.429 45.8533C126.429 45.98 126.134 46.1912 125.545 46.4869C124.998 46.7403 124.535 46.867 124.156 46.867C124.156 46.9093 124.24 47.0149 124.409 47.1838C124.577 47.395 124.661 47.5429 124.661 47.6273C124.661 47.7963 124.409 48.0286 123.904 48.3243C123.693 48.451 123.588 48.5355 123.588 48.5777H123.841L124.282 48.451C124.409 48.451 124.472 48.4933 124.472 48.5777C124.472 48.62 124.346 48.7678 124.093 49.0213C123.42 49.7393 123.083 50.3096 123.083 50.732C123.083 50.8165 122.915 50.9643 122.578 51.1755C121.989 51.5979 121.694 51.9569 121.694 52.2526L121.757 52.316L122.01 52.1892C122.052 52.1892 122.073 52.2315 122.073 52.316C122.073 52.5694 121.884 52.844 121.505 53.1396C121.379 53.2241 121.316 53.2875 121.316 53.3297C121.316 53.4987 121.358 53.6465 121.442 53.7732V53.8366C121.316 53.8366 121 53.6043 120.495 53.1396C120.411 53.0974 120.348 53.0552 120.306 53.0129C120.306 53.0552 120.327 53.1396 120.369 53.2664C120.411 53.562 120.432 53.8366 120.432 54.09C120.432 54.5124 120.348 54.9348 120.179 55.3572C120.053 55.7796 119.906 55.9908 119.738 55.9908C119.738 55.9908 119.695 55.9697 119.611 55.9275C119.611 55.9275 119.59 55.9275 119.548 55.9275C119.464 55.9275 119.422 56.1387 119.422 56.5611C119.422 56.899 119.19 57.258 118.728 57.6382C118.433 57.9339 118.286 58.1451 118.286 58.2718L118.412 58.5252C118.412 58.5675 118.328 58.6731 118.159 58.842C117.654 59.1799 117.402 59.539 117.402 59.9191C117.402 60.257 117.318 60.5527 117.15 60.8062C116.981 61.0174 116.708 61.2497 116.329 61.5031C116.245 61.5876 116.182 61.651 116.14 61.6932C116.981 62.0311 117.949 62.3902 119.043 62.7703C119.759 63.0238 120.221 63.2138 120.432 63.3406C120.642 63.425 120.748 63.5306 120.748 63.6574C120.748 63.7841 120.663 63.8474 120.495 63.8474C120.411 63.8474 120.095 63.7841 119.548 63.6574C118.833 63.4884 118.391 63.4039 118.223 63.4039C118.223 63.4462 119.296 63.8897 121.442 64.7345C121.568 64.7767 121.673 64.819 121.757 64.8612C125.924 66.3818 128.932 67.7546 130.784 68.9796C132.636 70.2045 133.982 71.7463 134.824 73.6048C135.581 75.2522 135.96 76.7306 135.96 78.04C135.96 79.265 135.602 80.2998 134.887 81.1446C134.214 81.9894 133.583 82.4118 132.993 82.4118C132.699 82.4118 132.551 82.2218 132.551 81.8416C132.551 81.5459 132.657 81.1869 132.867 80.7645C133.078 80.3421 133.183 79.983 133.183 79.6874C133.183 78.6736 132.762 77.4487 131.92 76.0125C131.079 74.5341 130.489 73.7949 130.153 73.7949C130.111 73.7949 130.048 73.816 129.963 73.8583C129.921 73.9005 129.879 73.9216 129.837 73.9216C129.543 73.9216 129.122 73.7949 128.575 73.5415C128.07 73.288 127.817 73.0768 127.817 72.9079C127.817 72.8234 127.691 72.7812 127.439 72.7812C127.354 72.7812 127.186 72.8023 126.934 72.8445C126.723 72.8868 126.576 72.9079 126.492 72.9079C126.197 72.9079 126.029 72.76 125.987 72.4644C125.987 72.3376 125.945 72.2743 125.86 72.2743C125.776 72.2743 125.566 72.401 125.229 72.6544C125.061 72.8234 124.956 72.9079 124.914 72.9079C124.914 72.8656 124.935 72.7812 124.977 72.6544C125.019 72.5277 125.04 72.4432 125.04 72.401C125.04 72.2743 123.735 71.9152 121.126 71.3239C118.559 70.7325 116.287 70.4368 114.309 70.4368C112.92 70.4368 112.121 70.5847 111.91 70.8804C111.91 71.0071 112.226 71.2394 112.857 71.5773C112.983 71.6618 113.089 71.7252 113.173 71.7674C112.584 71.8096 111.742 71.8308 110.648 71.8308H110.332C110.248 71.8308 110.206 71.9786 110.206 72.2743C110.206 72.3588 110.206 72.5066 110.206 72.7178C110.248 72.929 110.269 73.098 110.269 73.2247C110.269 73.4781 110.248 73.6048 110.206 73.6048L110.143 73.5415L110.017 73.4781C109.806 73.4781 109.533 73.7527 109.196 74.3018C108.901 74.8509 108.754 75.2944 108.754 75.6323C108.754 75.7591 108.775 75.8858 108.817 76.0125C108.859 76.097 108.88 76.1392 108.88 76.1392C108.88 76.2237 108.859 76.2659 108.817 76.2659L108.691 76.2026C108.649 76.1603 108.586 76.1392 108.502 76.1392C108.291 76.1392 108.06 76.2871 107.807 76.5827C107.555 76.8784 107.429 77.0896 107.429 77.2163C107.429 77.3008 107.45 77.3431 107.492 77.3431C107.534 77.3431 107.618 77.3219 107.744 77.2797C107.828 77.1952 107.891 77.153 107.934 77.153C108.06 77.153 108.123 77.2163 108.123 77.3431C108.123 77.512 107.934 77.7021 107.555 77.9133C107.218 78.1245 107.05 78.2935 107.05 78.4202L107.113 78.927C107.113 79.5184 106.629 80.3632 105.661 81.4614C105.324 81.8416 105.156 82.0739 105.156 82.1584C105.24 82.1584 105.367 82.1162 105.535 82.0317H105.661C105.872 82.0317 106.04 82.1162 106.166 82.2851L106.229 82.4752C106.229 82.5174 106.208 82.5386 106.166 82.5386H106.04C105.872 82.4541 105.745 82.4118 105.661 82.4118C105.367 82.4118 105.051 82.6442 104.714 83.1088C104.42 83.5312 104.272 83.9747 104.272 84.4393C104.272 84.6928 104.399 84.9885 104.651 85.3264C104.735 85.4109 104.777 85.4742 104.777 85.5165L104.714 85.5798C104.714 85.5798 104.672 85.5587 104.588 85.5165C104.462 85.432 104.357 85.3897 104.272 85.3897C103.936 85.3897 103.683 85.5165 103.515 85.7699C103.347 85.9811 103.199 86.2979 103.073 86.7203C102.863 87.3539 102.61 87.6707 102.316 87.6707C102.189 87.6707 102.105 87.6285 102.063 87.544C101.979 87.544 101.958 87.5651 102 87.6073C102 87.6496 102.063 87.7974 102.189 88.0508C102.358 88.431 102.442 88.6844 102.442 88.8112C102.442 88.8534 102.379 88.8956 102.252 88.9379C101.958 89.0646 101.811 89.318 101.811 89.6982C101.811 90.2473 101.537 90.5219 100.99 90.5219L100.485 90.4585C100.485 90.543 100.611 90.7964 100.864 91.2188C100.99 91.43 101.053 91.5568 101.053 91.599C101.053 91.6835 100.611 92.2326 99.7276 93.2464C99.7697 93.4998 99.8959 93.6265 100.106 93.6265C100.233 93.6265 100.443 93.5209 100.738 93.3097C100.864 93.183 100.948 93.1196 100.99 93.1196C101.032 93.1196 101.053 93.1407 101.053 93.183C101.053 93.2252 101.053 93.2464 101.053 93.2464C101.011 93.3308 100.99 93.3731 100.99 93.3731C100.99 93.6265 101.537 94.0067 102.631 94.5135C103.389 94.8937 103.767 95.1471 103.767 95.2739C103.767 95.2739 103.746 95.295 103.704 95.3372C103.662 95.3795 103.641 95.4006 103.641 95.4006C103.641 95.5273 104.104 95.7385 105.03 96.0342C110.248 97.5126 114.498 99.5401 117.781 102.117C121.105 104.693 122.767 107.228 122.767 109.72C122.767 110.903 122.326 112.022 121.442 113.078C120.558 114.134 119.885 114.662 119.422 114.662C119.169 114.662 119.043 114.535 119.043 114.282C119.043 114.028 119.169 113.669 119.422 113.205C119.717 112.613 119.864 112.149 119.864 111.811C119.864 109.741 116.75 107.946 110.522 106.425C110.522 106.425 110.458 106.404 110.332 106.362C105.493 105.264 101.074 104.714 97.0764 104.714C95.856 104.714 95.0775 104.968 94.7409 105.475C94.4042 105.939 94.2359 106.679 94.2359 107.692C94.2359 107.988 94.299 108.136 94.4253 108.136H94.6146C94.6146 108.178 94.4884 108.326 94.2359 108.579C93.6047 109.129 93.289 109.488 93.289 109.657C93.289 109.699 93.3522 109.741 93.4784 109.783C93.773 109.91 93.9203 110.1 93.9203 110.353C93.9203 110.691 93.794 110.86 93.5415 110.86L93.3522 110.797C92.9313 110.797 92.6999 111.008 92.6578 111.431C92.5316 112.825 92.237 113.859 91.7741 114.535C91.5637 114.831 91.4585 115.105 91.4585 115.359C91.4585 115.739 91.6689 116.183 92.0897 116.689C92.1739 116.774 92.216 116.816 92.216 116.816L92.1528 116.88C92.1528 116.88 92.1107 116.858 92.0266 116.816C91.9003 116.732 91.8162 116.689 91.7741 116.689C91.4795 116.689 91.2481 116.88 91.0797 117.26C90.9535 117.598 90.8483 118.083 90.7641 118.717C90.68 119.351 90.5748 119.667 90.4485 119.667C90.4064 119.667 90.3012 119.646 90.1329 119.604C90.0487 119.562 90.0066 119.541 90.0066 119.541C90.0066 119.541 90.0487 119.604 90.1329 119.731C90.3854 120.111 90.5116 120.364 90.5116 120.491C90.5116 120.576 90.4485 120.681 90.3223 120.808C90.0277 121.188 89.8804 121.674 89.8804 122.265C89.8804 122.603 89.9856 122.793 90.196 122.835C90.2381 122.835 90.2591 122.856 90.2591 122.899C90.2591 122.983 90.175 123.089 90.0066 123.215C89.7962 123.384 89.691 123.532 89.691 123.659C89.691 123.743 89.7121 123.849 89.7542 123.976C89.7962 124.06 89.8173 124.124 89.8173 124.166C89.8173 124.25 89.7331 124.314 89.5648 124.356C89.3544 124.398 89.2492 124.525 89.2492 124.736C89.2492 124.778 89.2702 124.884 89.3123 125.053C89.3544 125.222 89.3754 125.349 89.3754 125.433C89.3754 125.687 89.2913 125.961 89.1229 126.257C88.8284 126.764 88.6811 127.355 88.6811 128.031C88.6811 128.664 88.5548 129.319 88.3023 129.995C88.134 130.46 88.0498 130.861 88.0498 131.199C88.0498 131.326 88.0709 131.516 88.113 131.769C88.155 132.065 88.1761 132.318 88.1761 132.529C88.1761 132.91 88.134 133.48 88.0498 134.24C87.7973 136.099 87.6711 138.19 87.6711 140.513C87.6711 141.949 87.9657 143.913 88.5548 146.405C89.1861 148.897 89.9225 151.094 90.7641 152.995C91.6058 154.895 92.3422 155.846 92.9734 155.846C93.773 155.846 94.4463 155.423 94.9934 154.579C95.2038 154.283 95.3511 154.135 95.4352 154.135C95.4773 154.135 95.4983 154.156 95.4983 154.198C95.4983 154.283 95.5404 154.325 95.6246 154.325C95.6667 154.325 95.7508 154.262 95.8771 154.135C96.2979 153.797 96.7187 153.628 97.1395 153.628C97.897 153.628 98.3389 153.966 98.4651 154.642C98.4651 155.149 98.0864 155.804 97.3289 156.606C96.5714 157.409 96.0875 157.81 95.8771 157.81C95.835 157.768 95.7508 157.747 95.6246 157.747C95.4563 157.747 95.1617 157.768 94.7409 157.81C93.9413 157.937 93.3101 158 92.8472 158ZM78.5183 90.3952C78.5183 90.4374 78.6656 90.4585 78.9601 90.4585C79.6755 90.4585 80.2647 89.9516 80.7276 88.9379C81.2326 87.9241 81.7375 86.5513 82.2425 84.8195C82.7896 83.0877 83.1683 82.2218 83.3787 82.2218C83.505 82.2218 83.5681 82.1795 83.5681 82.095C83.5681 82.0528 83.5471 81.9894 83.505 81.905C83.4208 81.736 83.3787 81.6093 83.3787 81.5248C83.3787 81.3136 83.4419 81.1446 83.5681 81.0179C83.6102 80.9757 83.6523 80.8912 83.6944 80.7645C83.7785 80.5533 83.8416 80.4266 83.8837 80.3843C84.01 79.1171 84.4097 78.0823 85.0831 77.2797C85.2935 77.0263 85.3987 76.8362 85.3987 76.7095C85.3987 76.5405 85.3987 76.4349 85.3987 76.3927C85.3566 76.3082 85.3355 76.2448 85.3355 76.2026C85.3355 75.9914 85.4618 75.8858 85.7143 75.8858C85.9668 75.8858 86.093 75.9491 86.093 76.0759C86.093 76.2448 85.7353 77.1952 85.0199 78.927C83.3787 82.7709 82.5581 85.0729 82.5581 85.8333C82.5581 86.0445 82.4529 86.2134 82.2425 86.3401C82.0321 86.4246 81.9059 86.5725 81.8638 86.7837C81.8638 87.2061 81.6113 88.3043 81.1063 90.0784C81.443 90.1628 81.7796 90.2473 82.1163 90.3318C82.3688 90.374 82.5792 90.3952 82.7475 90.3952C83.1683 90.3952 83.505 90.184 83.7575 89.7616C84.052 89.2969 84.4308 88.3888 84.8937 87.0371C86.8715 81.039 88.1761 77.8711 88.8073 77.5331C88.8494 77.4909 88.8704 77.4698 88.8704 77.4698C88.8704 77.4698 88.8494 77.4487 88.8073 77.4064C88.7231 77.4064 88.6811 77.3853 88.6811 77.3431C88.6811 77.0474 89.5437 74.9987 91.2691 71.1972C91.9003 69.761 92.216 69.0218 92.216 68.9796C92.216 68.8951 90.9535 68.8529 88.4286 68.8529C87.4607 68.8529 85.7564 68.874 83.3156 68.9162C81.0432 68.9162 79.4651 68.9162 78.5814 68.9162C76.1406 68.9162 74.6257 68.8951 74.0365 68.8529C73.4895 68.8106 73.216 68.7261 73.216 68.5994V68.4727C73.1739 68.4727 73.1318 68.4938 73.0897 68.5361C72.4585 69.0007 71.2802 69.2964 69.5548 69.4231C69.5127 69.4231 69.4707 69.4231 69.4286 69.4231C68.124 69.5498 67.3245 69.6765 67.0299 69.8032C66.7353 69.93 66.3987 70.3312 66.0199 71.0071C65.6412 71.6407 65.2835 72.1898 64.9468 72.6544C64.021 73.9639 62.1694 77.0051 59.392 81.7782C56.6146 86.5091 55.2259 88.9801 55.2259 89.1913C55.268 89.2336 56.0465 89.2758 57.5615 89.318C60.5914 89.4448 62.1063 89.5715 62.1063 89.6982C62.1063 89.7827 60.9911 89.9094 58.7608 90.0784C57.4142 90.1628 56.7409 90.2262 56.7409 90.2684C56.7409 90.3107 58.4031 90.3318 61.7276 90.3318C65.5991 90.3318 67.5349 90.2896 67.5349 90.2051C67.5349 90.1628 67.2614 90.1206 66.7143 90.0784C65.8306 89.9939 65.3887 89.9094 65.3887 89.8249C65.3887 89.6982 66.041 89.6137 67.3455 89.5715C68.6921 89.5292 70.3754 89.5081 72.3953 89.5081C74.4995 89.5081 75.5515 89.5504 75.5515 89.6348C75.5515 89.6771 75.5094 89.6982 75.4253 89.6982C75.3411 89.7827 75.299 89.8249 75.299 89.8249L75.804 89.8883C76.0144 89.8883 76.4563 89.8672 77.1296 89.8249C77.6766 89.7827 78.0343 89.7616 78.2027 89.7616C78.7076 89.7616 78.9601 89.8249 78.9601 89.9516C78.9601 89.9939 78.876 90.0784 78.7076 90.2051C78.5814 90.2896 78.5183 90.3529 78.5183 90.3952Z" fill="#3B5FDF"/>
<path d="M92.8472 158C91.206 158 89.3544 157.366 87.2924 156.099C85.2724 154.79 84.1783 153.818 84.01 153.185C84.01 152.931 83.8206 152.72 83.4419 152.551C82.979 152.382 82.2425 151.094 81.2326 148.686C80.2226 146.236 79.7176 144.568 79.7176 143.681C79.7176 143.554 79.7597 143.406 79.8439 143.237C79.8439 143.195 79.8439 143.174 79.8439 143.174C79.8439 143.047 79.7807 142.984 79.6545 142.984C79.2337 142.984 78.6024 139.752 77.7608 133.29C77.6346 132.403 77.5714 130.312 77.5714 127.017C77.5714 121.061 77.9081 116.161 78.5814 112.318C78.6235 112.106 78.6445 111.959 78.6445 111.874C78.8129 110.649 79.0233 109.297 79.2757 107.819C79.5703 106.214 79.7386 104.947 79.7807 104.018C73.0055 104.102 68.4396 104.186 66.0831 104.271C63.7265 104.355 61.5382 104.503 59.5183 104.714C57.4142 104.883 55.3522 105.031 53.3322 105.158C52.4906 105.158 51.8383 105.242 51.3754 105.411C50.9125 105.58 50.2182 105.665 49.2924 105.665C48.3666 105.665 47.6722 105.749 47.2093 105.918C46.7885 106.087 46.3887 106.446 46.01 106.995C45.6733 107.502 45.2315 108.41 44.6844 109.72C43.9269 111.409 43.3378 112.508 42.9169 113.015C42.8328 113.099 42.7907 113.205 42.7907 113.331C42.7907 113.627 42.2226 115.127 41.0864 117.83C39.9502 120.533 39.2979 121.969 39.1296 122.138C39.1296 122.138 38.309 124.799 36.6678 130.122C36.6257 130.671 36.4153 132.149 36.0365 134.557C35.6578 136.922 35.4053 138.211 35.2791 138.422C35.1949 138.422 35.1528 138.19 35.1528 137.725C35.1528 136.458 35.3001 134.388 35.5947 131.516C35.5947 130.967 35.7209 130.565 35.9734 130.312C36.0576 130.227 36.0997 130.143 36.0997 130.058L36.0365 129.742C35.9945 129.657 35.9734 129.551 35.9734 129.425C35.9734 129.256 36.0365 129.108 36.1628 128.981C36.289 128.812 36.3522 128.622 36.3522 128.411C36.3522 128.284 36.3311 128.115 36.289 127.904C36.247 127.735 36.2259 127.63 36.2259 127.587C36.2259 127.461 36.247 127.397 36.289 127.397C36.289 127.397 36.3311 127.418 36.4153 127.461C36.4153 127.461 36.4363 127.461 36.4784 127.461C36.6888 127.461 36.8992 127.102 37.1096 126.383C37.32 125.623 37.4252 124.926 37.4252 124.293C37.4252 124.081 37.3832 123.849 37.299 123.596C37.2569 123.511 37.2359 123.448 37.2359 123.406C37.2359 123.321 37.278 123.279 37.3621 123.279C37.4042 123.279 37.4673 123.321 37.5515 123.406C37.7198 123.448 37.804 123.469 37.804 123.469C37.8882 123.469 37.9302 123.427 37.9302 123.342C37.9302 123.3 37.8882 123.152 37.804 122.899C37.7198 122.603 37.6777 122.413 37.6777 122.328C37.6777 122.244 37.7198 122.202 37.804 122.202C37.8461 122.202 37.9092 122.223 37.9934 122.265C38.0775 122.307 38.1406 122.328 38.1827 122.328C38.2669 122.328 38.309 122.244 38.309 122.075C38.309 121.272 38.4563 120.681 38.7508 120.301C38.8771 120.132 38.9402 120.005 38.9402 119.921C38.9402 119.879 38.9192 119.857 38.8771 119.857C38.835 119.815 38.814 119.794 38.814 119.794C38.814 119.794 38.8771 119.731 39.0033 119.604C39.2558 119.393 39.3821 119.245 39.3821 119.16C39.3821 119.118 39.34 119.097 39.2558 119.097C39.0454 119.097 38.9402 118.992 38.9402 118.78C38.9402 118.442 39.1085 118.189 39.4452 118.02C39.7818 117.893 40.0343 117.682 40.2027 117.386C40.4131 117.091 40.5183 116.52 40.5183 115.676C40.5183 115.169 40.6866 114.683 41.0233 114.218C41.2757 113.881 41.4441 113.585 41.5282 113.331C41.7387 111.98 42.1174 111.093 42.6645 110.67C42.7065 110.628 42.7276 110.607 42.7276 110.607C42.7276 110.607 42.6645 110.628 42.5382 110.67C42.3278 110.797 42.2015 110.86 42.1595 110.86C42.0753 110.86 42.0332 110.839 42.0332 110.797C42.0332 110.586 42.454 109.973 43.2957 108.96C43.969 108.199 44.3056 107.756 44.3056 107.629C44.2636 107.629 44.1794 107.65 44.0532 107.692C43.8848 107.777 43.7586 107.819 43.6744 107.819C43.6744 107.777 43.7375 107.608 43.8638 107.312C44.0321 106.974 44.1163 106.763 44.1163 106.679C44.1163 106.51 43.99 106.425 43.7375 106.425C43.3588 106.425 43.1694 106.615 43.1694 106.995L43.2326 107.439C43.2326 107.481 43.1063 107.692 42.8538 108.073C41.6755 109.889 41.0864 111.409 41.0864 112.634C41.0864 112.761 41.1074 112.888 41.1495 113.015C41.1495 113.057 41.1495 113.078 41.1495 113.078C41.1495 113.247 41.0864 113.331 40.9601 113.331C40.9601 113.331 40.9181 113.331 40.8339 113.331C40.7497 113.289 40.6866 113.268 40.6445 113.268C40.5604 113.268 40.2447 113.902 39.6977 115.169C39.1927 116.436 38.9402 117.133 38.9402 117.26C38.856 117.64 38.3931 119.076 37.5515 121.568C37.2569 122.413 37.1096 122.835 37.1096 122.835C37.1096 122.878 37.0886 122.92 37.0465 122.962C36.9623 123.173 36.8782 123.321 36.794 123.406C36.289 124.208 35.7841 126.257 35.2791 129.551C34.8162 132.804 34.5847 135.486 34.5847 137.598C34.5847 140.048 34.7741 141.822 35.1528 142.92C35.5316 144.019 36.3101 145.434 37.4884 147.165C37.6146 147.334 37.7198 147.482 37.804 147.609C39.1506 147.609 40.2237 147.757 41.0233 148.053C41.8649 148.306 42.2857 148.707 42.2857 149.256C42.2857 149.552 42.0122 149.784 41.4651 149.953C40.9601 150.08 40.371 150.143 39.6977 150.143C37.0465 150.143 34.6058 148.834 32.3754 146.215C30.1451 143.554 28.3566 140.027 27.01 135.634C25.7054 131.199 25.0532 126.489 25.0532 121.505C25.0532 119.182 25.3267 116.014 25.8738 112.001C26.0421 110.649 26.1262 109.847 26.1262 109.593C26.1262 109.297 26.0842 109.15 26 109.15C25.7054 109.15 25.3898 110.163 25.0532 112.191C24.7165 114.218 24.5482 116.753 24.5482 119.794C24.5482 122.835 24.443 124.356 24.2326 124.356C24.0221 124.356 23.9169 123.068 23.9169 120.491C23.9169 118.421 23.9801 116.753 24.1063 115.486C24.2326 114.176 24.443 112.719 24.7375 111.114C24.8638 110.185 24.969 109.466 25.0532 108.96C24.3798 109.044 23.7907 109.129 23.2857 109.213C23.1174 109.255 23.0122 109.276 22.9701 109.276C22.7176 109.276 22.5914 109.213 22.5914 109.086L22.6545 108.833C22.6545 108.748 22.5914 108.706 22.4651 108.706C22.2126 108.706 22.0443 108.854 21.9601 109.15C21.8339 109.445 20.2137 109.783 17.0997 110.163C15.1639 110.375 14.1118 110.544 13.9435 110.67C13.7752 110.797 13.5648 110.86 13.3123 110.86C13.2281 110.86 13.1229 110.839 12.9967 110.797C12.8704 110.755 12.7863 110.734 12.7442 110.734C12.5338 110.734 12.3444 110.881 12.1761 111.177C12.134 111.262 12.113 111.304 12.113 111.304C12.0709 111.304 12.0498 111.262 12.0498 111.177C11.9657 110.755 11.7342 110.544 11.3555 110.544C11.0609 110.544 10.9136 110.565 10.9136 110.607C10.9136 110.649 11.0399 110.755 11.2924 110.924C11.4186 111.05 11.4817 111.114 11.4817 111.114C11.4817 111.198 11.1872 111.241 10.598 111.241C9.84053 111.241 9.46179 111.156 9.46179 110.987C9.46179 110.818 10.8505 110.438 13.6279 109.847C16.4474 109.255 18.2569 108.96 19.0565 108.96C19.4352 108.96 19.6877 109.044 19.814 109.213C19.856 109.255 19.8981 109.297 19.9402 109.34C20.0244 109.382 20.0875 109.403 20.1296 109.403C20.1296 109.403 20.1085 109.361 20.0664 109.276C19.9823 109.15 19.9402 109.044 19.9402 108.96C19.9402 108.748 20.2979 108.622 21.0133 108.579C21.3079 108.579 21.4972 108.558 21.5814 108.516C21.9601 108.516 22.6755 108.389 23.7276 108.136C24.8217 107.84 25.3688 107.523 25.3688 107.185C25.3688 107.101 25.3477 107.038 25.3056 106.995C24.8848 106.995 22.2337 107.481 17.3522 108.453C11.629 109.551 8.47287 110.1 7.88372 110.1C7.29457 110.1 7 109.952 7 109.657C7 109.572 7.04208 109.466 7.12625 109.34C7.50498 108.622 7.84164 107.038 8.13621 104.588C8.47287 102.476 8.89369 101.42 9.39867 101.42C9.44075 101.42 9.50388 101.441 9.58804 101.483C9.63012 101.525 9.65116 101.546 9.65116 101.546C9.69324 101.546 9.71429 101.525 9.71429 101.483C9.71429 101.483 9.69324 101.42 9.65116 101.293C9.65116 100.575 10.598 99.6457 12.4917 98.5052C14.3854 97.3225 15.5216 96.7311 15.9003 96.7311C16.1528 96.7311 16.3212 96.6255 16.4053 96.4143C16.4895 96.2454 16.6157 96.1609 16.7841 96.1609C16.8261 96.2031 16.9313 96.2243 17.0997 96.2243C17.268 96.2243 17.6678 96.1398 18.299 95.9708C18.9302 95.7596 19.2458 95.654 19.2458 95.654C19.33 95.654 20.0033 95.4639 21.2658 95.0838C24.4219 94.07 26.3367 93.5631 27.01 93.5631L27.1362 93.6265C27.4308 93.6265 27.8937 93.4787 28.5249 93.183C29.1561 92.8451 29.4718 92.5916 29.4718 92.4227C29.4718 92.3382 29.2614 92.296 28.8405 92.296C28.546 92.296 28.1462 92.3171 27.6412 92.3593C27.3466 92.4016 27.1573 92.4227 27.0731 92.4227C26.7364 92.4227 26.5681 92.3804 26.5681 92.296C26.5681 92.1692 26.7785 92.0425 27.1993 91.9158C27.6202 91.7891 28.3566 91.6412 29.4086 91.4723C29.9978 90.0361 30.6711 88.1776 31.4286 85.8966C31.9336 84.4182 32.2702 83.489 32.4385 83.1088C32.6069 82.9398 33.0066 81.9683 33.6379 80.1942C34.0166 79.0538 34.2481 78.4413 34.3322 78.3568C34.3322 78.2723 34.5006 77.8077 34.8372 76.9629C35.5105 75.1888 35.8472 74.1117 35.8472 73.7316C35.8472 73.3092 35.6788 73.098 35.3422 73.098C35.258 73.098 35.2159 73.1613 35.2159 73.288C35.258 73.5837 35.3212 73.7949 35.4053 73.9216C35.4053 73.9639 35.4053 73.985 35.4053 73.985V74.0484C35.3632 74.0484 35.2791 74.0061 35.1528 73.9216C34.8583 73.6682 34.6268 73.5415 34.4585 73.5415C34.1218 73.5415 33.9535 73.7104 33.9535 74.0484C33.9535 74.1328 33.9956 74.2807 34.0797 74.4919C34.1218 74.5763 34.1429 74.6186 34.1429 74.6186C34.0587 74.6186 33.9535 74.513 33.8272 74.3018C33.4485 73.9216 33.0066 73.7316 32.5017 73.7316C32.2492 73.7738 32.0388 73.8372 31.8704 73.9216C31.7442 74.0061 31.6811 74.0906 31.6811 74.1751C31.6811 74.3018 31.8494 74.3863 32.186 74.4285C32.6069 74.4707 32.8173 74.5975 32.8173 74.8087C32.8173 74.9354 32.7542 74.9987 32.6279 74.9987C32.165 74.9987 31.7652 74.7031 31.4286 74.1117C31.3023 73.9005 31.2182 73.7949 31.1761 73.7949C31.0919 73.7949 30.9657 73.8794 30.7973 74.0484C30.4607 74.2173 30.2082 74.3018 30.0399 74.3018C29.9557 74.3018 29.8505 74.2596 29.7243 74.1751C29.6401 74.1328 29.577 74.1117 29.5349 74.1117C29.4928 74.1117 29.4718 74.154 29.4718 74.2384C29.4718 74.3652 29.6401 74.5763 29.9767 74.872C30.1872 75.0832 30.2924 75.2099 30.2924 75.2522C30.2924 75.3367 29.9136 75.3789 29.1561 75.3789C28.9457 75.3789 28.8405 75.3578 28.8405 75.3155C28.8405 75.3155 28.8616 75.3155 28.9037 75.3155C29.1561 75.1888 29.2824 75.0199 29.2824 74.8087C29.2824 74.4707 29.0509 74.3018 28.588 74.3018C28.1251 74.3018 27.4939 74.5763 26.6944 75.1255C26.3998 75.2944 26.2315 75.3789 26.1894 75.3789C26.1894 75.3789 26.2104 75.3155 26.2525 75.1888C26.3367 75.0621 26.3787 74.9987 26.3787 74.9987C26.3787 74.9143 26.3156 74.872 26.1894 74.872C26.021 74.872 25.2215 74.9776 23.7907 75.1888C22.3599 75.3578 21.6445 75.5056 21.6445 75.6323C21.6445 75.7591 21.5183 75.8224 21.2658 75.8224C20.4662 75.8224 19.9402 75.928 19.6877 76.1392C19.6035 76.1815 19.5404 76.2026 19.4983 76.2026C19.4983 76.1603 19.5404 76.0547 19.6246 75.8858C19.7087 75.7591 19.7508 75.6746 19.7508 75.6323C19.6667 75.6323 19.5615 75.6746 19.4352 75.7591C19.0986 75.928 18.7198 76.0547 18.299 76.1392C18.1728 76.1392 17.8992 76.2026 17.4784 76.3293C16.4264 76.625 15.3953 76.7728 14.3854 76.7728C13.67 76.7728 13.2702 76.7095 13.186 76.5827C13.0177 76.2448 12.8494 75.4211 12.6811 74.1117C12.5127 72.76 12.4286 71.514 12.4286 70.3735C12.4286 69.402 12.4917 68.7895 12.6179 68.5361C12.9125 67.7757 14.0066 66.9521 15.9003 66.065C17.794 65.178 19.4773 64.6922 20.9502 64.6077C21.7918 64.6077 22.2126 64.481 22.2126 64.2276C22.2126 64.1009 22.907 63.9108 24.2957 63.6574C24.8007 63.5306 25.1584 63.4462 25.3688 63.4039C29.0299 62.6014 32.0598 62.0945 34.4585 61.8833C35.0897 61.8833 35.4053 61.7777 35.4053 61.5665C35.4053 61.482 35.4474 61.4398 35.5316 61.4398C35.5736 61.4398 35.6368 61.482 35.7209 61.5665C35.9313 61.7777 36.1207 61.8833 36.289 61.8833C36.4574 61.8833 36.6678 61.7988 36.9203 61.6298C37.1728 61.4609 37.3621 61.3764 37.4884 61.3764C37.6567 61.3764 37.8882 61.482 38.1827 61.6932C38.3511 61.8622 38.4773 61.9466 38.5615 61.9466C38.7298 61.9466 38.9192 61.7777 39.1296 61.4398C39.2979 61.1441 39.4452 60.9962 39.5714 60.9962C39.6135 60.9962 39.6556 61.0174 39.6977 61.0596C39.8239 61.1018 39.9291 61.123 40.0133 61.123C41.2337 61.123 42.5592 60.7217 43.99 59.9191C45.4629 59.1166 46.6202 57.7649 47.4618 55.8641C47.588 55.3995 47.7774 55.1038 48.0299 54.9771C48.1982 54.8926 48.2824 54.7659 48.2824 54.5969C48.2824 54.1323 50.4075 50.4363 54.6578 43.509C58.9081 36.5394 61.1595 33.0546 61.412 33.0546C61.412 33.0546 63.3477 29.8866 67.2193 23.5506C68.3976 21.6499 69.3865 19.8335 70.186 18.1017C70.9856 16.3276 71.3854 15.1238 71.3854 14.4902C71.3854 14.2368 71.3012 14.11 71.1329 14.11C70.9646 14.11 70.7121 14.3846 70.3754 14.9337C69.9546 15.694 69.5969 16.0742 69.3023 16.0742C69.2182 16.0742 69.1761 16.032 69.1761 15.9475C69.1761 15.7785 69.2813 15.6307 69.4917 15.504C69.7863 15.3772 69.9336 15.2083 69.9336 14.9971C69.9336 14.9126 70.3965 13.6665 71.3223 11.2589C72.2481 8.85119 72.711 7.64735 72.711 7.64735C72.711 7.52063 72.6478 7.30943 72.5216 7.01376C72.3953 6.71808 72.3322 6.50688 72.3322 6.38016C72.3322 6.12672 72.4374 6 72.6478 6C73.0266 6 73.2791 6.46464 73.4053 7.39391C73.4053 7.47839 73.3843 7.60511 73.3422 7.77407C73.3001 7.94303 73.2791 8.04863 73.2791 8.09087C73.2791 8.34431 73.4895 8.47103 73.9103 8.47103C74.7099 8.47103 75.5094 8.95679 76.309 9.9283C77.1506 10.8998 78.2868 12.6739 79.7176 15.2505C80.6013 16.8979 81.6534 18.334 82.8738 19.559C83.9679 20.615 84.8095 22.0089 85.3987 23.7407C85.9878 25.4726 86.2824 27.31 86.2824 29.253C86.2824 31.7452 85.6301 34.4696 84.3256 37.4264C83.0631 40.3832 81.5271 43.4878 79.7176 46.7403C79.381 47.3317 79.1495 47.7329 79.0233 47.9441C78.897 48.1976 78.7076 48.5566 78.4552 49.0213C75.2148 54.7236 73.5947 57.7649 73.5947 58.1451L73.6578 58.2084C73.6999 58.2507 74.6257 58.2929 76.4352 58.3351C83.9258 58.5041 89.6069 58.7998 93.4784 59.2222C94.9513 56.8145 95.6877 55.4417 95.6877 55.1038C95.6877 55.1038 95.6667 55.0827 95.6246 55.0404C95.5825 55.0404 95.5615 55.0193 95.5615 54.9771C95.5615 54.8504 96.6766 52.9918 98.907 49.4014C101.137 45.7688 103.683 41.7138 106.545 37.2363C109.406 32.7167 111.931 28.8517 114.12 25.6415C116.308 22.389 117.549 20.7628 117.844 20.7628C117.97 20.7628 118.033 20.6995 118.033 20.5727C118.033 20.0659 118.559 19.3478 119.611 18.4185C120.158 17.9116 120.432 17.5948 120.432 17.4681C120.432 17.2569 120.558 17.0246 120.811 16.7712C121.105 16.4755 121.316 16.3276 121.442 16.3276L121.505 16.391C121.505 16.56 120.769 17.6793 119.296 19.7491C117.739 21.9033 116.602 23.5084 115.887 24.5644C113.362 28.1125 110.606 32.1887 107.618 36.7928C104.672 41.397 102.105 45.5365 99.9169 49.2113C97.7287 52.844 96.6346 54.7448 96.6346 54.9137L96.6977 54.9771C96.6977 55.0193 96.5714 55.1883 96.3189 55.484C95.8981 55.9908 95.6877 56.3287 95.6877 56.4977C95.6877 56.5822 95.7087 56.6455 95.7508 56.6878C95.7929 56.73 95.814 56.7511 95.814 56.7511C95.814 56.7934 95.7719 56.8356 95.6877 56.8779C95.3511 56.9623 95.1196 57.2791 94.9934 57.8283C94.8671 58.4196 94.5725 58.7575 94.1096 58.842C94.0676 58.842 94.0465 58.842 94.0465 58.842C94.0465 58.9265 94.2569 59.0532 94.6777 59.2222C95.1406 59.3911 95.5615 59.4756 95.9402 59.4756C96.3189 59.4756 96.6766 59.3067 97.0133 58.9687C97.3499 58.5886 97.8339 57.8071 98.4651 56.6244C102.252 49.9505 104.735 45.5998 105.914 43.5723C107.134 41.5448 108.396 39.5807 109.701 37.6799C111.006 35.6524 112.289 33.6671 113.551 31.7241C116.96 26.5286 120.6 21.2486 124.472 15.8841C125.65 14.2368 126.429 13.1174 126.807 12.5261C127.228 11.8925 127.439 11.4489 127.439 11.1955C127.439 11.111 127.375 11.0054 127.249 10.8787C127.165 10.8365 127.123 10.7942 127.123 10.752C127.586 10.752 128.385 10.3085 129.522 9.42143C130.574 8.61887 131.31 8.21759 131.731 8.21759C132.909 8.21759 134.13 9.04127 135.392 10.6886C136.654 12.2937 137.728 14.11 138.611 16.1376C139.537 18.1228 140 19.4111 140 20.0025C140 20.2559 139.916 20.6361 139.748 21.143C139.579 21.6499 139.495 22.0511 139.495 22.3468C139.495 22.5158 139.516 22.6636 139.558 22.7903C139.6 22.8326 139.621 22.8748 139.621 22.917L139.558 22.9804C139.474 22.9804 139.327 22.9382 139.116 22.8537C138.99 22.8114 138.906 22.7903 138.864 22.7903C138.78 22.7903 138.738 22.8114 138.738 22.8537C138.738 22.8959 138.801 23.0226 138.927 23.2338C139.095 23.5718 139.179 23.783 139.179 23.8674C139.179 23.9097 139.158 23.9308 139.116 23.9308C139.074 23.9308 139.011 23.9308 138.927 23.9308C138.843 23.8886 138.759 23.8674 138.674 23.8674C138.38 23.8674 138.148 24.142 137.98 24.6911C137.812 25.198 137.728 25.8527 137.728 26.6553C137.728 26.6553 137.707 26.613 137.664 26.5286C137.454 26.1484 137.265 25.9583 137.096 25.9583C136.928 25.9583 136.844 26.0428 136.844 26.2118C136.844 26.3385 136.865 26.4441 136.907 26.5286C136.907 26.8665 136.697 27.2466 136.276 27.669C135.981 27.9647 135.834 28.197 135.834 28.366C135.834 28.4082 135.855 28.4716 135.897 28.5561C135.939 28.6405 135.96 28.725 135.96 28.8095C135.96 28.8517 135.939 28.8729 135.897 28.8729C135.897 28.8729 135.855 28.8517 135.771 28.8095C135.645 28.7673 135.56 28.7461 135.518 28.7461C135.434 28.7461 135.392 28.8306 135.392 28.9996C135.392 29.0418 135.392 29.1052 135.392 29.1897C135.434 29.2741 135.455 29.3586 135.455 29.4431C135.455 29.7388 135.308 30.0767 135.013 30.4569C134.803 30.7525 134.698 31.006 134.698 31.2172C134.74 31.2594 134.761 31.3228 134.761 31.4073C134.761 31.4495 134.698 31.4917 134.571 31.534C134.361 31.534 134.256 31.5973 134.256 31.7241C134.256 31.7663 134.277 31.8297 134.319 31.9141C134.361 31.9564 134.382 31.9986 134.382 32.0408C134.382 32.1676 134.172 32.3154 133.751 32.4844C133.246 32.6956 132.993 32.9068 132.993 33.118C132.993 33.2447 133.056 33.308 133.183 33.308C133.225 33.308 133.288 33.2869 133.372 33.2447C133.456 33.2024 133.498 33.1813 133.498 33.1813C133.54 33.1813 133.561 33.2236 133.561 33.308C133.561 33.4348 133.519 33.5826 133.435 33.7516C133.351 33.9205 133.246 34.005 133.12 34.005C133.12 34.005 133.078 33.9839 132.993 33.9416C132.909 33.8994 132.867 33.8783 132.867 33.8783C132.783 33.8783 132.699 33.9628 132.615 34.1317C132.615 34.3007 132.551 34.3852 132.425 34.3852C132.425 34.3852 132.362 34.364 132.236 34.3218C132.152 34.2796 132.089 34.2584 132.047 34.2584C132.047 34.3852 132.152 34.6597 132.362 35.0821C132.446 35.2933 132.488 35.42 132.488 35.4623C132.488 35.5468 132.383 35.6101 132.173 35.6524C131.752 35.7368 131.542 35.948 131.542 36.286C131.542 36.6239 131.352 37.004 130.973 37.4264C130.637 37.8488 130.342 38.06 130.09 38.06C129.963 38.06 129.9 38.0389 129.9 37.9967C129.858 37.9967 129.837 38.0178 129.837 38.06C129.837 38.1023 129.858 38.2501 129.9 38.5035C129.984 38.7992 130.027 38.9893 130.027 39.0738C130.027 39.2427 129.984 39.3272 129.9 39.3272C129.9 39.3272 129.858 39.3061 129.774 39.2639C129.69 39.2216 129.627 39.2005 129.585 39.2005C129.458 39.2005 129.395 39.4117 129.395 39.8341C129.395 40.2143 129.353 40.5099 129.269 40.7211C129.185 40.9323 128.996 41.0379 128.701 41.0379C128.659 41.0379 128.596 41.0168 128.512 40.9746C128.427 40.9323 128.364 40.9112 128.322 40.9112C128.238 40.9112 128.196 40.9957 128.196 41.1646C128.196 41.2491 128.217 41.397 128.259 41.6082C128.301 41.7771 128.322 41.8827 128.322 41.925C128.322 42.2206 128.133 42.5163 127.754 42.812C127.418 43.0232 127.249 43.2555 127.249 43.509C127.249 43.5512 127.27 43.6146 127.312 43.699C127.354 43.7835 127.375 43.8469 127.375 43.8891C127.375 44.1003 127.123 44.3749 126.618 44.7128C126.071 45.093 125.797 45.4098 125.797 45.6632C125.797 45.8321 125.882 45.9166 126.05 45.9166L126.365 45.7899C126.408 45.7899 126.429 45.811 126.429 45.8533C126.429 45.98 126.134 46.1912 125.545 46.4869C124.998 46.7403 124.535 46.867 124.156 46.867C124.156 46.9093 124.24 47.0149 124.409 47.1838C124.577 47.395 124.661 47.5429 124.661 47.6273C124.661 47.7963 124.409 48.0286 123.904 48.3243C123.693 48.451 123.588 48.5355 123.588 48.5777H123.841L124.282 48.451C124.409 48.451 124.472 48.4933 124.472 48.5777C124.472 48.62 124.346 48.7678 124.093 49.0213C123.42 49.7393 123.083 50.3096 123.083 50.732C123.083 50.8165 122.915 50.9643 122.578 51.1755C121.989 51.5979 121.694 51.9569 121.694 52.2526L121.757 52.316L122.01 52.1892C122.052 52.1892 122.073 52.2315 122.073 52.316C122.073 52.5694 121.884 52.844 121.505 53.1396C121.379 53.2241 121.316 53.2875 121.316 53.3297C121.316 53.4987 121.358 53.6465 121.442 53.7732V53.8366C121.316 53.8366 121 53.6043 120.495 53.1396C120.411 53.0974 120.348 53.0552 120.306 53.0129C120.306 53.0552 120.327 53.1396 120.369 53.2664C120.411 53.562 120.432 53.8366 120.432 54.09C120.432 54.5124 120.348 54.9348 120.179 55.3572C120.053 55.7796 119.906 55.9908 119.738 55.9908C119.738 55.9908 119.695 55.9697 119.611 55.9275C119.611 55.9275 119.59 55.9275 119.548 55.9275C119.464 55.9275 119.422 56.1387 119.422 56.5611C119.422 56.899 119.19 57.258 118.728 57.6382C118.433 57.9339 118.286 58.1451 118.286 58.2718L118.412 58.5252C118.412 58.5675 118.328 58.6731 118.159 58.842C117.654 59.1799 117.402 59.539 117.402 59.9191C117.402 60.257 117.318 60.5527 117.15 60.8062C116.981 61.0174 116.708 61.2497 116.329 61.5031C116.245 61.5876 116.182 61.651 116.14 61.6932C116.981 62.0311 117.949 62.3902 119.043 62.7703C119.759 63.0238 120.221 63.2138 120.432 63.3406C120.642 63.425 120.748 63.5306 120.748 63.6574C120.748 63.7841 120.663 63.8474 120.495 63.8474C120.411 63.8474 120.095 63.7841 119.548 63.6574C118.833 63.4884 118.391 63.4039 118.223 63.4039C118.223 63.4462 119.296 63.8897 121.442 64.7345C121.568 64.7767 121.673 64.819 121.757 64.8612C125.924 66.3818 128.932 67.7546 130.784 68.9796C132.636 70.2045 133.982 71.7463 134.824 73.6048C135.581 75.2522 135.96 76.7306 135.96 78.04C135.96 79.265 135.602 80.2998 134.887 81.1446C134.214 81.9894 133.583 82.4118 132.993 82.4118C132.699 82.4118 132.551 82.2218 132.551 81.8416C132.551 81.5459 132.657 81.1869 132.867 80.7645C133.078 80.3421 133.183 79.983 133.183 79.6874C133.183 78.6736 132.762 77.4487 131.92 76.0125C131.079 74.5341 130.489 73.7949 130.153 73.7949C130.111 73.7949 130.048 73.816 129.963 73.8583C129.921 73.9005 129.879 73.9216 129.837 73.9216C129.543 73.9216 129.122 73.7949 128.575 73.5415C128.07 73.288 127.817 73.0768 127.817 72.9079C127.817 72.8234 127.691 72.7812 127.439 72.7812C127.354 72.7812 127.186 72.8023 126.934 72.8445C126.723 72.8868 126.576 72.9079 126.492 72.9079C126.197 72.9079 126.029 72.76 125.987 72.4644C125.987 72.3376 125.945 72.2743 125.86 72.2743C125.776 72.2743 125.566 72.401 125.229 72.6544C125.061 72.8234 124.956 72.9079 124.914 72.9079C124.914 72.8656 124.935 72.7812 124.977 72.6544C125.019 72.5277 125.04 72.4432 125.04 72.401C125.04 72.2743 123.735 71.9152 121.126 71.3239C118.559 70.7325 116.287 70.4368 114.309 70.4368C112.92 70.4368 112.121 70.5847 111.91 70.8804C111.91 71.0071 112.226 71.2394 112.857 71.5773C112.983 71.6618 113.089 71.7252 113.173 71.7674C112.584 71.8096 111.742 71.8308 110.648 71.8308H110.332C110.248 71.8308 110.206 71.9786 110.206 72.2743C110.206 72.3588 110.206 72.5066 110.206 72.7178C110.248 72.929 110.269 73.098 110.269 73.2247C110.269 73.4781 110.248 73.6048 110.206 73.6048L110.143 73.5415L110.017 73.4781C109.806 73.4781 109.533 73.7527 109.196 74.3018C108.901 74.8509 108.754 75.2944 108.754 75.6323C108.754 75.7591 108.775 75.8858 108.817 76.0125C108.859 76.097 108.88 76.1392 108.88 76.1392C108.88 76.2237 108.859 76.2659 108.817 76.2659L108.691 76.2026C108.649 76.1603 108.586 76.1392 108.502 76.1392C108.291 76.1392 108.06 76.2871 107.807 76.5827C107.555 76.8784 107.429 77.0896 107.429 77.2163C107.429 77.3008 107.45 77.3431 107.492 77.3431C107.534 77.3431 107.618 77.3219 107.744 77.2797C107.828 77.1952 107.891 77.153 107.934 77.153C108.06 77.153 108.123 77.2163 108.123 77.3431C108.123 77.512 107.934 77.7021 107.555 77.9133C107.218 78.1245 107.05 78.2935 107.05 78.4202L107.113 78.927C107.113 79.5184 106.629 80.3632 105.661 81.4614C105.324 81.8416 105.156 82.0739 105.156 82.1584C105.24 82.1584 105.367 82.1162 105.535 82.0317H105.661C105.872 82.0317 106.04 82.1162 106.166 82.2851L106.229 82.4752C106.229 82.5174 106.208 82.5386 106.166 82.5386H106.04C105.872 82.4541 105.745 82.4118 105.661 82.4118C105.367 82.4118 105.051 82.6442 104.714 83.1088C104.42 83.5312 104.272 83.9747 104.272 84.4393C104.272 84.6928 104.399 84.9885 104.651 85.3264C104.735 85.4109 104.777 85.4742 104.777 85.5165L104.714 85.5798C104.714 85.5798 104.672 85.5587 104.588 85.5165C104.462 85.432 104.357 85.3897 104.272 85.3897C103.936 85.3897 103.683 85.5165 103.515 85.7699C103.347 85.9811 103.199 86.2979 103.073 86.7203C102.863 87.3539 102.61 87.6707 102.316 87.6707C102.189 87.6707 102.105 87.6285 102.063 87.544C101.979 87.544 101.958 87.5651 102 87.6073C102 87.6496 102.063 87.7974 102.189 88.0508C102.358 88.431 102.442 88.6844 102.442 88.8112C102.442 88.8534 102.379 88.8956 102.252 88.9379C101.958 89.0646 101.811 89.318 101.811 89.6982C101.811 90.2473 101.537 90.5219 100.99 90.5219L100.485 90.4585C100.485 90.543 100.611 90.7964 100.864 91.2188C100.99 91.43 101.053 91.5568 101.053 91.599C101.053 91.6835 100.611 92.2326 99.7276 93.2464C99.7697 93.4998 99.8959 93.6265 100.106 93.6265C100.233 93.6265 100.443 93.5209 100.738 93.3097C100.864 93.183 100.948 93.1196 100.99 93.1196C101.032 93.1196 101.053 93.1407 101.053 93.183C101.053 93.2252 101.053 93.2464 101.053 93.2464C101.011 93.3308 100.99 93.3731 100.99 93.3731C100.99 93.6265 101.537 94.0067 102.631 94.5135C103.389 94.8937 103.767 95.1471 103.767 95.2739C103.767 95.2739 103.746 95.295 103.704 95.3372C103.662 95.3795 103.641 95.4006 103.641 95.4006C103.641 95.5273 104.104 95.7385 105.03 96.0342C110.248 97.5126 114.498 99.5401 117.781 102.117C121.105 104.693 122.767 107.228 122.767 109.72C122.767 110.903 122.326 112.022 121.442 113.078C120.558 114.134 119.885 114.662 119.422 114.662C119.169 114.662 119.043 114.535 119.043 114.282C119.043 114.028 119.169 113.669 119.422 113.205C119.717 112.613 119.864 112.149 119.864 111.811C119.864 109.741 116.75 107.946 110.522 106.425C110.522 106.425 110.458 106.404 110.332 106.362C105.493 105.264 101.074 104.714 97.0764 104.714C95.856 104.714 95.0775 104.968 94.7409 105.475C94.4042 105.939 94.2359 106.679 94.2359 107.692C94.2359 107.988 94.299 108.136 94.4253 108.136H94.6146C94.6146 108.178 94.4884 108.326 94.2359 108.579C93.6047 109.129 93.289 109.488 93.289 109.657C93.289 109.699 93.3522 109.741 93.4784 109.783C93.773 109.91 93.9203 110.1 93.9203 110.353C93.9203 110.691 93.794 110.86 93.5415 110.86L93.3522 110.797C92.9313 110.797 92.6999 111.008 92.6578 111.431C92.5316 112.825 92.237 113.859 91.7741 114.535C91.5637 114.831 91.4585 115.105 91.4585 115.359C91.4585 115.739 91.6689 116.183 92.0897 116.689C92.1739 116.774 92.216 116.816 92.216 116.816L92.1528 116.88C92.1528 116.88 92.1107 116.858 92.0266 116.816C91.9003 116.732 91.8162 116.689 91.7741 116.689C91.4795 116.689 91.2481 116.88 91.0797 117.26C90.9535 117.598 90.8483 118.083 90.7641 118.717C90.68 119.351 90.5748 119.667 90.4485 119.667C90.4064 119.667 90.3012 119.646 90.1329 119.604C90.0487 119.562 90.0066 119.541 90.0066 119.541C90.0066 119.541 90.0487 119.604 90.1329 119.731C90.3854 120.111 90.5116 120.364 90.5116 120.491C90.5116 120.576 90.4485 120.681 90.3223 120.808C90.0277 121.188 89.8804 121.674 89.8804 122.265C89.8804 122.603 89.9856 122.793 90.196 122.835C90.2381 122.835 90.2591 122.856 90.2591 122.899C90.2591 122.983 90.175 123.089 90.0066 123.215C89.7962 123.384 89.691 123.532 89.691 123.659C89.691 123.743 89.7121 123.849 89.7542 123.976C89.7962 124.06 89.8173 124.124 89.8173 124.166C89.8173 124.25 89.7331 124.314 89.5648 124.356C89.3544 124.398 89.2492 124.525 89.2492 124.736C89.2492 124.778 89.2702 124.884 89.3123 125.053C89.3544 125.222 89.3754 125.349 89.3754 125.433C89.3754 125.687 89.2913 125.961 89.1229 126.257C88.8284 126.764 88.6811 127.355 88.6811 128.031C88.6811 128.664 88.5548 129.319 88.3023 129.995C88.134 130.46 88.0498 130.861 88.0498 131.199C88.0498 131.326 88.0709 131.516 88.113 131.769C88.155 132.065 88.1761 132.318 88.1761 132.529C88.1761 132.91 88.134 133.48 88.0498 134.24C87.7973 136.099 87.6711 138.19 87.6711 140.513C87.6711 141.949 87.9657 143.913 88.5548 146.405C89.1861 148.897 89.9225 151.094 90.7641 152.995C91.6058 154.895 92.3422 155.846 92.9734 155.846C93.773 155.846 94.4463 155.423 94.9934 154.579C95.2038 154.283 95.3511 154.135 95.4352 154.135C95.4773 154.135 95.4983 154.156 95.4983 154.198C95.4983 154.283 95.5404 154.325 95.6246 154.325C95.6667 154.325 95.7508 154.262 95.8771 154.135C96.2979 153.797 96.7187 153.628 97.1395 153.628C97.897 153.628 98.3389 153.966 98.4651 154.642C98.4651 155.149 98.0864 155.804 97.3289 156.606C96.5714 157.409 96.0875 157.81 95.8771 157.81C95.835 157.768 95.7508 157.747 95.6246 157.747C95.4563 157.747 95.1617 157.768 94.7409 157.81C93.9413 157.937 93.3101 158 92.8472 158ZM78.5183 90.3952C78.5183 90.4374 78.6656 90.4585 78.9601 90.4585C79.6755 90.4585 80.2647 89.9516 80.7276 88.9379C81.2326 87.9241 81.7375 86.5513 82.2425 84.8195C82.7896 83.0877 83.1683 82.2218 83.3787 82.2218C83.505 82.2218 83.5681 82.1795 83.5681 82.095C83.5681 82.0528 83.5471 81.9894 83.505 81.905C83.4208 81.736 83.3787 81.6093 83.3787 81.5248C83.3787 81.3136 83.4419 81.1446 83.5681 81.0179C83.6102 80.9757 83.6523 80.8912 83.6944 80.7645C83.7785 80.5533 83.8416 80.4266 83.8837 80.3843C84.01 79.1171 84.4097 78.0823 85.0831 77.2797C85.2935 77.0263 85.3987 76.8362 85.3987 76.7095C85.3987 76.5405 85.3987 76.4349 85.3987 76.3927C85.3566 76.3082 85.3355 76.2448 85.3355 76.2026C85.3355 75.9914 85.4618 75.8858 85.7143 75.8858C85.9668 75.8858 86.093 75.9491 86.093 76.0759C86.093 76.2448 85.7353 77.1952 85.0199 78.927C83.3787 82.7709 82.5581 85.0729 82.5581 85.8333C82.5581 86.0445 82.4529 86.2134 82.2425 86.3401C82.0321 86.4246 81.9059 86.5725 81.8638 86.7837C81.8638 87.2061 81.6113 88.3043 81.1063 90.0784C81.443 90.1628 81.7796 90.2473 82.1163 90.3318C82.3688 90.374 82.5792 90.3952 82.7475 90.3952C83.1683 90.3952 83.505 90.184 83.7575 89.7616C84.052 89.2969 84.4308 88.3888 84.8937 87.0371C86.8715 81.039 88.1761 77.8711 88.8073 77.5331C88.8494 77.4909 88.8704 77.4698 88.8704 77.4698C88.8704 77.4698 88.8494 77.4487 88.8073 77.4064C88.7231 77.4064 88.6811 77.3853 88.6811 77.3431C88.6811 77.0474 89.5437 74.9987 91.2691 71.1972C91.9003 69.761 92.216 69.0218 92.216 68.9796C92.216 68.8951 90.9535 68.8529 88.4286 68.8529C87.4607 68.8529 85.7564 68.874 83.3156 68.9162C81.0432 68.9162 79.4651 68.9162 78.5814 68.9162C76.1406 68.9162 74.6257 68.8951 74.0365 68.8529C73.4895 68.8106 73.216 68.7261 73.216 68.5994V68.4727C73.1739 68.4727 73.1318 68.4938 73.0897 68.5361C72.4585 69.0007 71.2802 69.2964 69.5548 69.4231C69.5127 69.4231 69.4707 69.4231 69.4286 69.4231C68.124 69.5498 67.3245 69.6765 67.0299 69.8032C66.7353 69.93 66.3987 70.3312 66.0199 71.0071C65.6412 71.6407 65.2835 72.1898 64.9468 72.6544C64.021 73.9639 62.1694 77.0051 59.392 81.7782C56.6146 86.5091 55.2259 88.9801 55.2259 89.1913C55.268 89.2336 56.0465 89.2758 57.5615 89.318C60.5914 89.4448 62.1063 89.5715 62.1063 89.6982C62.1063 89.7827 60.9911 89.9094 58.7608 90.0784C57.4142 90.1628 56.7409 90.2262 56.7409 90.2684C56.7409 90.3107 58.4031 90.3318 61.7276 90.3318C65.5991 90.3318 67.5349 90.2896 67.5349 90.2051C67.5349 90.1628 67.2614 90.1206 66.7143 90.0784C65.8306 89.9939 65.3887 89.9094 65.3887 89.8249C65.3887 89.6982 66.041 89.6137 67.3455 89.5715C68.6921 89.5292 70.3754 89.5081 72.3953 89.5081C74.4995 89.5081 75.5515 89.5504 75.5515 89.6348C75.5515 89.6771 75.5094 89.6982 75.4253 89.6982C75.3411 89.7827 75.299 89.8249 75.299 89.8249L75.804 89.8883C76.0144 89.8883 76.4563 89.8672 77.1296 89.8249C77.6766 89.7827 78.0343 89.7616 78.2027 89.7616C78.7076 89.7616 78.9601 89.8249 78.9601 89.9516C78.9601 89.9939 78.876 90.0784 78.7076 90.2051C78.5814 90.2896 78.5183 90.3529 78.5183 90.3952Z" stroke="#FBFBFB" stroke-width="8" mask="url(#path-1-outside-1_526_3)"/>
</svg>
