<svg width="102" height="39" viewBox="0 0 102 39" fill="none" xmlns="http://www.w3.org/2000/svg">
<rect x="0.84375" width="101" height="39" rx="19.5" fill="#FBFBFB"/>
<path d="M30.9688 19.4997L25.4271 13.958V17.1247C19.8854 17.9163 17.5104 21.8747 16.7188 25.833C18.6979 23.0622 21.4688 21.7955 25.4271 21.7955V25.0413L30.9688 19.4997Z" fill="#3B5FDF"/>
<path d="M45.1118 25.612C44.3758 25.612 43.7144 25.484 43.1278 25.228C42.5518 24.9613 42.0984 24.5987 41.7678 24.14C41.4371 23.6707 41.2664 23.132 41.2558 22.524H42.8078C42.8611 23.0467 43.0744 23.4893 43.4478 23.852C43.8318 24.204 44.3864 24.38 45.1118 24.38C45.8051 24.38 46.3491 24.2093 46.7438 23.868C47.1491 23.516 47.3518 23.068 47.3518 22.524C47.3518 22.0973 47.2344 21.7507 46.9998 21.484C46.7651 21.2173 46.4718 21.0147 46.1198 20.876C45.7678 20.7373 45.2931 20.588 44.6958 20.428C43.9598 20.236 43.3678 20.044 42.9198 19.852C42.4824 19.66 42.1038 19.3613 41.7838 18.956C41.4744 18.54 41.3198 17.9853 41.3198 17.292C41.3198 16.684 41.4744 16.1453 41.7838 15.676C42.0931 15.2067 42.5251 14.844 43.0798 14.588C43.6451 14.332 44.2904 14.204 45.0158 14.204C46.0611 14.204 46.9144 14.4653 47.5758 14.988C48.2478 15.5107 48.6264 16.204 48.7118 17.068H47.1118C47.0584 16.6413 46.8344 16.268 46.4398 15.948C46.0451 15.6173 45.5224 15.452 44.8718 15.452C44.2638 15.452 43.7678 15.612 43.3838 15.932C42.9998 16.2413 42.8078 16.6787 42.8078 17.244C42.8078 17.6493 42.9198 17.98 43.1438 18.236C43.3784 18.492 43.6611 18.6893 43.9918 18.828C44.3331 18.956 44.8078 19.1053 45.4158 19.276C46.1518 19.4787 46.7438 19.6813 47.1918 19.884C47.6398 20.076 48.0238 20.38 48.3438 20.796C48.6638 21.2013 48.8238 21.756 48.8238 22.46C48.8238 23.004 48.6798 23.516 48.3918 23.996C48.1038 24.476 47.6771 24.8653 47.1118 25.164C46.5464 25.4627 45.8798 25.612 45.1118 25.612ZM55.6384 16.572C56.2997 16.572 56.897 16.716 57.4304 17.004C57.9637 17.2813 58.3797 17.7027 58.6784 18.268C58.9877 18.8333 59.1424 19.5213 59.1424 20.332V25.5H57.7024V20.54C57.7024 19.6653 57.4837 18.9987 57.0464 18.54C56.609 18.0707 56.0117 17.836 55.2544 17.836C54.4864 17.836 53.873 18.076 53.4144 18.556C52.9664 19.036 52.7424 19.7347 52.7424 20.652V25.5H51.2864V13.66H52.7424V17.98C53.0304 17.532 53.425 17.1853 53.9264 16.94C54.4384 16.6947 55.009 16.572 55.6384 16.572ZM61.2967 21.084C61.2967 20.188 61.4781 19.404 61.8407 18.732C62.2034 18.0493 62.6994 17.5213 63.3287 17.148C63.9687 16.7747 64.6781 16.588 65.4567 16.588C66.2247 16.588 66.8914 16.7533 67.4567 17.084C68.0221 17.4147 68.4434 17.8307 68.7207 18.332V16.732H70.1927V25.5H68.7207V23.868C68.4327 24.38 68.0007 24.8067 67.4247 25.148C66.8594 25.4787 66.1981 25.644 65.4407 25.644C64.6621 25.644 63.9581 25.452 63.3287 25.068C62.6994 24.684 62.2034 24.1453 61.8407 23.452C61.4781 22.7587 61.2967 21.9693 61.2967 21.084ZM68.7207 21.1C68.7207 20.4387 68.5874 19.8627 68.3207 19.372C68.0541 18.8813 67.6914 18.508 67.2327 18.252C66.7847 17.9853 66.2887 17.852 65.7447 17.852C65.2007 17.852 64.7047 17.98 64.2567 18.236C63.8087 18.492 63.4514 18.8653 63.1847 19.356C62.9181 19.8467 62.7847 20.4227 62.7847 21.084C62.7847 21.756 62.9181 22.3427 63.1847 22.844C63.4514 23.3347 63.8087 23.7133 64.2567 23.98C64.7047 24.236 65.2007 24.364 65.7447 24.364C66.2887 24.364 66.7847 24.236 67.2327 23.98C67.6914 23.7133 68.0541 23.3347 68.3207 22.844C68.5874 22.3427 68.7207 21.7613 68.7207 21.1ZM74.4292 18.156C74.6852 17.6547 75.0479 17.2653 75.5172 16.988C75.9972 16.7107 76.5786 16.572 77.2612 16.572V18.076H76.8772C75.2452 18.076 74.4292 18.9613 74.4292 20.732V25.5H72.9732V16.732H74.4292V18.156ZM87.262 20.78C87.262 21.0573 87.246 21.3507 87.214 21.66H80.206C80.2593 22.524 80.5527 23.2013 81.086 23.692C81.63 24.172 82.286 24.412 83.054 24.412C83.6833 24.412 84.206 24.268 84.622 23.98C85.0487 23.6813 85.3473 23.2867 85.518 22.796H87.086C86.8513 23.6387 86.382 24.3267 85.678 24.86C84.974 25.3827 84.0993 25.644 83.054 25.644C82.222 25.644 81.4753 25.4573 80.814 25.084C80.1633 24.7107 79.6513 24.1827 79.278 23.5C78.9047 22.8067 78.718 22.0067 78.718 21.1C78.718 20.1933 78.8993 19.3987 79.262 18.716C79.6247 18.0333 80.1313 17.5107 80.782 17.148C81.4433 16.7747 82.2007 16.588 83.054 16.588C83.886 16.588 84.622 16.7693 85.262 17.132C85.902 17.4947 86.3927 17.996 86.734 18.636C87.086 19.2653 87.262 19.98 87.262 20.78ZM85.758 20.476C85.758 19.9213 85.6353 19.4467 85.39 19.052C85.1447 18.6467 84.8087 18.3427 84.382 18.14C83.966 17.9267 83.502 17.82 82.99 17.82C82.254 17.82 81.6247 18.0547 81.102 18.524C80.59 18.9933 80.2967 19.644 80.222 20.476H85.758Z" fill="#3B5FDF"/>
</svg>
